<?xml version="1.0" encoding="utf-8"?>
<!-- Generator: Adobe Illustrator 17.0.0, SVG Export Plug-In . SVG Version: 6.00 Build 0)  -->
<!DOCTYPE svg PUBLIC "-//W3C//DTD SVG 1.1//EN" "http://www.w3.org/Graphics/SVG/1.1/DTD/svg11.dtd">
<svg version="1.1" id="_x2B_Presi" xmlns="http://www.w3.org/2000/svg" xmlns:xlink="http://www.w3.org/1999/xlink" x="0px" y="0px"
	 width="448px" height="582px" viewBox="0 0 448 582" enable-background="new 0 0 448 582" xml:space="preserve">
<g>
	<g id="Body">
		<g id="_x2B_Right_Leg">
			<g>
				<g>
					<rect x="159.465" y="504.832" fill="#C69CC8" width="44.499" height="68.052"/>
					
						<line opacity="0.25" fill="none" stroke="#010101" stroke-width="0.25" stroke-miterlimit="10" enable-background="new    " x1="159.465" y1="517.544" x2="204.11" y2="517.544"/>
					
						<line opacity="0.25" fill="none" stroke="#010101" stroke-width="0.25" stroke-miterlimit="10" enable-background="new    " x1="159.465" y1="533.727" x2="204.11" y2="533.727"/>
					
						<line opacity="0.25" fill="none" stroke="#010101" stroke-width="0.25" stroke-miterlimit="10" enable-background="new    " x1="159.465" y1="550.055" x2="204.11" y2="550.055"/>
				</g>
				<path fill="#5EC5BF" d="M204.11,559.445c0,0,5.202,21.383-9.391,21.383s-57.36,0-57.36,0s-15.459-0.577-15.459-5.636
					c0-7.514,36.988-11.126,36.988-11.126S190.963,569.414,204.11,559.445z"/>
				<polygon fill="#C69CC8" points="157.876,564.213 150.651,569.703 148.05,569.703 154.987,564.502 				"/>
				<polygon fill="#4A3259" points="149.351,565.367 155.13,569.703 157.876,569.703 151.374,565.078 				"/>
				<polygon fill="#4A3259" points="134.181,568.257 138.805,571.869 141.406,571.727 136.347,567.68 				"/>
				<polygon fill="#C69CC8" points="141.694,566.668 135.481,571.869 132.88,571.869 139.094,567.102 				"/>
			</g>
		</g>
		<g id="_x2B_Left_Leg">
			<g>
				<g>
					<rect x="215.956" y="504.397" fill="#C69CC8" width="44.645" height="68.052"/>
					
						<line opacity="0.25" fill="none" stroke="#010101" stroke-width="0.25" stroke-miterlimit="10" enable-background="new    " x1="215.956" y1="516.968" x2="260.601" y2="516.968"/>
					
						<line opacity="0.25" fill="none" stroke="#010101" stroke-width="0.25" stroke-miterlimit="10" enable-background="new    " x1="215.956" y1="533.296" x2="260.601" y2="533.296"/>
					
						<line opacity="0.25" fill="none" stroke="#010101" stroke-width="0.25" stroke-miterlimit="10" enable-background="new    " x1="215.956" y1="549.477" x2="260.601" y2="549.477"/>
				</g>
				<path fill="#5EC5BF" d="M215.814,558.869c0,0-5.202,21.383,9.391,21.383s57.071,0,57.071,0s15.316-0.577,15.316-5.636
					c0-7.514-36.7-11.126-36.7-11.126S228.96,568.979,215.814,558.869z"/>
				<polygon fill="#C69CC8" points="261.901,563.778 268.98,569.268 271.581,569.268 264.79,564.067 				"/>
				<polygon fill="#4A3259" points="270.281,564.789 264.502,569.268 261.901,569.268 268.261,564.502 				"/>
				<polygon fill="#4A3259" points="285.308,567.826 280.684,571.292 278.083,571.292 283.285,567.247 				"/>
				<polygon fill="#C69CC8" points="277.794,566.091 284.008,571.438 286.609,571.438 280.395,566.668 				"/>
			</g>
		</g>
		<g id="_x2B_Left_Arm">
			<g>
				<g>
					<path fill="#5EC5BF" d="M425.021,422.622c0.866-2.455-0.577-2.455-1.878-2.455c-0.866,0-1.878,0-2.747-0.146
						c-2.747-0.146-2.889-0.146-2.889,2.601c0,1.589-0.577,1.878-2.024,1.878c-6.356-0.289-12.858-0.435-19.217-0.723
						c-0.577,0-1.154,0-2.024,0.146c0.289,0.723,0.435,1.154,0.577,1.589c2.889,6.067,2.889,12.135-0.289,18.206
						c-0.866,1.589-0.723,1.878,1.154,1.878c5.925,0.289,11.846,0.435,17.771,0.577c3.035,0.146,3.035-0.289,2.747,3.035
						c-0.146,1.012,0.289,1.446,1.446,1.446c1.3,0,2.747,0,4.047,0.146c1.446,0.146,2.455,0,2.455-1.878
						c0,0,0.146-0.146,0.289-0.289c1.446,0.723,3.035,1.446,4.624,2.024c0.866,0.289,2.024,0.435,2.747,0.146
						c4.624-1.878,9.103-3.901,13.581-5.925c0.435-0.146,0.866-0.577,1.154-1.012c0.723-1.154,0.723-2.312-0.146-3.467
						c-1.012-1.154-2.166-1.3-3.467-0.723c-2.455,1.012-5.056,1.878-7.368,3.178c-3.467,2.024-6.645,2.024-9.969-0.146
						c-0.146,0-0.146-0.146-0.289-0.146c-0.866-0.289-1.154-0.866-1.154-1.735c0.146-3.035,0.289-6.067,0.435-9.103
						c0.289-3.901-0.289-2.743,3.178-4.19c2.601-1.012,4.767-1.012,7.225,0.577c2.601,1.735,5.49,3.035,8.237,4.336
						c1.589,0.866,3.324,0.146,4.044-1.3c0.723-1.446,0.146-3.035-1.446-3.901c-0.289-0.146-0.577-0.289-0.866-0.435
						c-3.467-1.878-7.079-3.613-10.546-5.636c-1.735-1.012-3.324-1.154-5.202-0.289C428.056,421.611,426.756,421.9,425.021,422.622z
						"/>
				</g>
				<g>
					<path fill="#C69CC8" d="M380.522,429.267L380.522,429.267c-6.213,11.992-21.095,16.759-33.087,10.546l-22.684-11.704
						c-11.992-6.213-16.759-21.095-10.546-33.087l0,0c6.213-11.992,21.095-16.759,33.087-10.546l22.684,11.704
						C382.111,402.394,386.732,417.133,380.522,429.267z"/>
					<path opacity="0.07" enable-background="new    " d="M314.206,395.026c-0.146,0.289-0.289,0.577-0.289,0.723
						c6.502-11.558,20.806-15.893,32.652-9.826l22.684,11.704c11.846,6.067,16.617,20.372,10.834,32.364
						c0.146-0.289,0.289-0.435,0.435-0.723c6.213-11.992,1.446-26.874-10.546-33.087l-22.684-11.704
						C335.297,378.267,320.415,382.891,314.206,395.026z"/>
				</g>
				<g>
					<path fill="#CDDC29" d="M402.914,440.682L402.914,440.682c-6.213,11.992-21.095,16.759-33.087,10.546l0,0
						c-11.992-6.213-16.759-21.095-10.546-33.087l0,0c6.213-11.992,21.095-16.759,33.087-10.546l0,0
						C404.36,413.809,409.127,428.69,402.914,440.682z"/>
					<path opacity="0.07" enable-background="new    " d="M359.139,418.286c-0.146,0.289-0.289,0.435-0.289,0.723
						c6.502-11.558,20.806-15.893,32.652-9.826c11.846,6.067,16.617,20.372,10.838,32.364c0.146-0.289,0.289-0.435,0.435-0.723
						c6.213-11.992,1.446-26.874-10.546-33.087C380.23,401.382,365.349,406.152,359.139,418.286z"/>
				</g>
				<circle opacity="0.44" fill="#FDFEFE" enable-background="new    " cx="368.384" cy="420.745" r="4.19"/>
			</g>
		</g>
		<g id="_x2B_Right_Arm">
			<g>
				<g>
					<path fill="#5EC5BF" d="M30.733,486.915c1.3,2.312,2.166,1.154,3.035,0.146c0.577-0.723,1.3-1.3,1.878-2.024
						c1.878-2.024,2.024-2.166-0.146-3.901c-1.154-1.012-1.012-1.589,0-2.747c4.478-4.624,8.814-9.391,13.147-14.016
						c0.435-0.435,0.723-0.866,1.3-1.589c-0.723-0.289-1.154-0.435-1.589-0.577c-6.502-1.735-10.98-5.779-13.581-12.135
						c-0.723-1.735-0.866-1.735-2.166-0.289c-4.044,4.336-8.091,8.668-12.135,13.004c-2.024,2.166-1.878,2.455-4.044,0.146
						c-0.723-0.723-1.3-0.723-2.024,0.146c-0.866,1.012-1.735,2.024-2.747,2.889c-1.154,1.012-1.589,1.878-0.146,3.035
						c0,0,0,0.146,0,0.435c-1.446,0.723-3.035,1.3-4.624,2.166c-0.723,0.435-1.735,1.154-2.024,2.024
						c-1.589,4.624-3.035,9.391-4.336,14.158c-0.146,0.435-0.146,1.012,0,1.446c0.435,1.3,1.3,2.024,2.747,2.024
						s2.455-0.866,2.889-2.166c0.866-2.455,2.024-5.056,2.455-7.656c0.723-4.044,2.889-6.356,6.645-7.514
						c0.146,0,0.146-0.146,0.289-0.146c0.723-0.435,1.3-0.289,2.024,0.289c2.166,2.166,4.336,4.19,6.502,6.213
						c2.747,2.747,2.312,1.589,1.012,5.056c-0.866,2.601-2.312,4.19-5.056,5.056c-3.035,0.866-5.779,2.166-8.668,3.324
						c-1.735,0.723-2.312,2.312-1.735,3.901c0.577,1.446,2.166,2.024,3.901,1.446c0.289-0.146,0.577-0.146,0.866-0.289
						c3.755-1.446,7.368-3.035,11.126-4.336c1.878-0.723,3.035-1.878,3.613-3.755C29.433,489.951,30.01,488.651,30.733,486.915z"/>
				</g>
				<g>
					<path fill="#C69CC8" d="M50.382,445.595L50.382,445.595c-10.115-9.103-10.838-24.561-1.735-34.676l17.194-18.929
						c9.103-10.115,24.561-10.834,34.676-1.735l0,0c10.115,9.103,10.834,24.561,1.735,34.676l-17.194,18.929
						C75.955,453.829,60.35,454.698,50.382,445.595z"/>
					<path opacity="0.07" enable-background="new    " d="M100.374,390.113c-0.146-0.146-0.435-0.289-0.723-0.577
						c9.537,9.103,10.115,24.273,1.154,34.099l-17.048,19.071c-8.957,9.826-23.984,10.838-34.099,2.312
						c0.146,0.146,0.435,0.435,0.577,0.577c10.115,9.103,25.573,8.38,34.676-1.735l17.194-18.929
						C111.208,414.82,110.485,399.216,100.374,390.113z"/>
				</g>
				<g>
					<path fill="#CDDC29" d="M33.477,464.232L33.477,464.232c-10.115-9.103-10.838-24.561-1.735-34.676l0,0
						c9.103-10.115,24.561-10.834,34.676-1.735l0,0c10.115,9.103,10.838,24.561,1.735,34.676l0,0
						C59.05,472.469,43.591,473.189,33.477,464.232z"/>
					<path opacity="0.07" enable-background="new    " d="M66.421,427.678c-0.146-0.146-0.435-0.289-0.577-0.577
						c9.537,9.103,10.115,24.273,1.154,34.099c-8.957,9.826-23.984,10.834-34.099,2.312c0.146,0.146,0.435,0.435,0.577,0.577
						c10.115,9.103,25.573,8.38,34.676-1.735C77.255,452.385,76.532,436.781,66.421,427.678z"/>
				</g>
				<circle opacity="0.44" fill="#FDFEFE" enable-background="new    " cx="60.35" cy="432.88" r="4.19"/>
			</g>
		</g>
		<g id="_x2B_Body_1_">
			<g>
				<g>
					<g>
						<g>
							<g>
								<g>
									<path fill="#CDDC29" d="M305.969,504.397H111.497c-13.581,0-24.561-10.98-24.561-24.561V368.875
										c0-13.581,10.98-24.561,24.561-24.561h194.472c13.581,0,24.561,10.98,24.561,24.561v110.961
										C330.53,493.418,319.55,504.397,305.969,504.397z"/>
									<g id="Gears" opacity="0.53">
										<g opacity="0.33">
											<path d="M149.639,395.172c-0.146,0.289-0.146,0.723-0.435,1.012c-0.435,1.012-1.012,1.878-1.589,2.747
												c-0.146,0.289-0.146,0.577-0.146,0.866c0.146,0.866,0.723,1.154,1.589,1.446c0.866,0.146,1.589,0.435,2.455,0.723
												c1.154,0.289,1.878,1.012,1.878,2.166c0,1.878,0,3.755,0,5.779c0,1.012-0.577,1.735-1.589,2.024
												c-1.154,0.289-2.166,0.723-3.324,1.012c-0.289,0.146-0.435,0.289-0.723,0.577c-0.435,0.723-0.289,1.446,0.146,2.024
												c0.435,0.723,0.866,1.446,1.3,2.312c0.577,1.154,0.435,2.166-0.435,3.035c-1.3,1.3-2.455,2.455-3.755,3.755
												c-0.866,0.866-1.878,1.012-2.889,0.435s-2.024-1.012-3.035-1.589c-0.289-0.146-0.577-0.146-0.866,0
												c-0.866,0.146-1.154,0.723-1.3,1.589s-0.435,1.735-0.723,2.601c-0.289,1.154-1.154,1.735-2.312,1.735
												c-1.735,0-3.613,0-5.344,0c-1.154,0-2.024-0.723-2.312-1.878c-0.289-1.012-0.577-2.166-0.866-3.178
												c0-0.289-0.289-0.435-0.577-0.577c-0.723-0.435-1.3-0.435-2.024,0.146c-0.723,0.435-1.589,0.866-2.312,1.3
												c-1.012,0.577-2.024,0.435-2.889-0.435c-1.3-1.154-2.455-2.455-3.755-3.755c-0.866-0.866-1.012-1.878-0.435-3.035
												c0.577-1.012,1.012-2.024,1.589-2.889c0.146-0.289,0.146-0.435,0-0.723c-0.289-0.866-0.723-1.3-1.589-1.446
												c-0.866-0.146-1.589-0.435-2.455-0.723c-1.3-0.435-1.878-1.154-1.878-2.455c0-1.735,0-3.467,0-5.202
												c0-1.3,0.577-2.024,1.878-2.455c1.012-0.289,2.166-0.577,3.178-0.866c0.289-0.146,0.435-0.289,0.577-0.577
												c0.435-0.723,0.289-1.446-0.146-2.166c-0.435-0.72-0.866-1.446-1.3-2.312c-0.577-1.012-0.435-2.024,0.435-2.889
												c1.3-1.3,2.455-2.601,3.755-3.755c0.866-0.723,1.878-1.012,2.889-0.435c1.012,0.577,2.024,1.012,3.035,1.589
												c0.289,0.146,0.577,0.146,0.866,0c0.723-0.289,1.154-0.723,1.3-1.446c0.146-0.866,0.435-1.735,0.723-2.601
												c0.289-1.154,1.012-1.735,2.312-1.878c1.878,0,3.755,0,5.636,0c1.154,0,1.878,0.723,2.166,1.735
												c0.288,1.012,0.577,2.166,0.866,3.178c0.146,0.289,0.289,0.435,0.577,0.577c0.723,0.435,1.446,0.289,2.024-0.146
												c0.723-0.435,1.589-0.866,2.312-1.3c1.012-0.577,2.166-0.435,2.889,0.435c1.3,1.3,2.455,2.455,3.755,3.755
												C149.351,393.726,149.497,394.303,149.639,395.172z M132.303,389.536c-0.577,0-1.154,0-1.735,0
												c-0.289,0-0.435,0.146-0.435,0.435c-0.289,0.866-0.577,1.878-0.723,2.743c-0.289,0.866-0.866,1.3-1.589,1.735
												c-1.012,0.435-2.024,0.723-2.889,1.154c-0.866,0.435-1.589,0.435-2.455,0c-0.435-0.289-0.866-0.435-1.3-0.723
												c-0.434-0.288-1.012-0.723-1.446-0.723s-0.723,0.723-1.154,1.012c-0.146,0.146-0.146,0.289-0.146,0.577
												c0.435,0.866,0.866,1.589,1.3,2.455s0.435,1.589,0,2.455c-0.435,0.866-0.866,1.878-1.154,2.747
												c-0.289,1.012-0.866,1.589-2.024,1.878c-1.012,0.289-1.878,0.577-2.889,0.866c0,0.577,0,1.154,0,1.735
												c0,0.289,0.146,0.435,0.435,0.577c0.866,0.289,1.735,0.435,2.601,0.723c0.866,0.289,1.446,0.866,1.735,1.735
												c0.435,1.012,0.866,2.024,1.3,3.035c0.435,0.866,0.435,1.589,0,2.312c-0.289,0.435-0.577,0.866-0.723,1.446
												c-0.289,0.435-0.723,1.012-0.723,1.446c0,0.435,0.723,0.723,1.012,1.154c0.146,0.289,0.435,0.289,0.577,0.146
												c0.723-0.435,1.589-0.866,2.312-1.3c0.866-0.435,1.735-0.435,2.601,0c0.866,0.435,1.735,0.866,2.601,1.154
												c1.012,0.289,1.589,0.866,1.878,1.878c0.289,0.866,0.435,1.735,0.723,2.601c0,0.146,0.289,0.289,0.435,0.289
												c0.577,0,1.154,0,1.878,0c0.289-1.012,0.577-2.024,0.866-2.889c0.289-1.012,0.866-1.589,1.878-1.878
												c0.866-0.289,1.878-0.723,2.747-1.154c0.866-0.435,1.735-0.435,2.601,0c0.723,0.435,1.589,0.866,2.312,1.3
												c0.146,0,0.435,0.146,0.435,0c0.435-0.435,0.866-0.866,1.3-1.3c-0.577-1.012-1.012-1.878-1.589-2.743
												c-0.435-0.866-0.435-1.589,0-2.455c0.435-1.012,0.866-2.024,1.3-3.035c0.289-0.723,0.866-1.3,1.589-1.589
												c0.866-0.289,1.878-0.577,2.743-0.866c0.146,0,0.289-0.289,0.289-0.289c0-0.577,0-1.3,0-1.878
												c-1.012-0.289-2.024-0.577-3.178-0.866c-0.866-0.289-1.3-0.723-1.589-1.589c-0.435-1.012-0.866-2.166-1.3-3.178
												c-0.289-0.723-0.289-1.446,0-2.166c0.289-0.435,0.577-1.012,0.866-1.446c0.289-0.435,0.723-1.012,0.723-1.446
												c-0.146-0.435-0.723-0.723-1.012-1.154c-0.146-0.289-0.435-0.146-0.577-0.146c-0.723,0.435-1.589,0.866-2.312,1.3
												c-0.866,0.577-1.735,0.577-2.743,0c-0.866-0.435-1.735-0.866-2.601-1.154c-1.012-0.289-1.589-1.012-1.878-2.024
												C132.88,391.413,132.592,390.548,132.303,389.536z"/>
											<path d="M141.117,407.161c0,5.49-4.478,9.969-10.115,9.969c-5.344,0-9.826-4.624-9.826-10.115
												c0-5.491,4.624-9.826,9.969-9.826C136.782,397.191,141.26,401.67,141.117,407.161z M131.291,401.816
												c-3.035,0-5.344,2.312-5.344,5.344c0,3.032,2.455,5.344,5.344,5.344c2.889,0,5.344-2.455,5.344-5.344
												C136.635,404.129,134.181,401.816,131.291,401.816z"/>
										</g>
										<g opacity="0.33">
											<path d="M161.2,431.002c0,0.146-0.146,0.435-0.289,0.577c-0.289,0.577-0.577,1.012-0.866,1.589
												c-0.146,0.146-0.146,0.289,0,0.577c0.146,0.435,0.435,0.723,0.866,0.866c0.435,0.146,1.012,0.289,1.446,0.435
												c0.723,0.146,1.012,0.577,1.012,1.3c0,1.154,0,2.166,0,3.324c0,0.577-0.435,1.012-1.012,1.154
												c-0.577,0.146-1.3,0.435-1.878,0.577c-0.146,0-0.289,0.146-0.435,0.289c-0.289,0.435-0.146,0.866,0.146,1.154
												c0.289,0.435,0.435,0.866,0.723,1.3c0.289,0.577,0.289,1.154-0.289,1.735c-0.723,0.723-1.446,1.446-2.166,2.166
												c-0.435,0.435-1.012,0.577-1.735,0.289c-0.577-0.289-1.154-0.577-1.735-1.012c-0.146-0.146-0.289-0.146-0.577,0
												c-0.435,0.146-0.723,0.435-0.723,0.866c-0.146,0.435-0.289,1.012-0.435,1.446c-0.146,0.577-0.723,1.012-1.3,1.012
												c-1.012,0-2.024,0-3.178,0c-0.723,0-1.154-0.435-1.3-1.012s-0.289-1.3-0.577-1.878c0-0.146-0.146-0.289-0.289-0.289
												c-0.435-0.289-0.723-0.146-1.154,0c-0.435,0.289-0.866,0.577-1.3,0.723c-0.577,0.289-1.154,0.289-1.735-0.289
												c-0.723-0.723-1.446-1.446-2.166-2.166c-0.577-0.577-0.577-1.154-0.289-1.735c0.289-0.581,0.577-1.154,1.012-1.735
												c0.146-0.146,0-0.289,0-0.435c-0.146-0.435-0.435-0.723-0.866-0.866c-0.435-0.146-1.012-0.289-1.446-0.435
												c-0.723-0.146-1.012-0.723-1.012-1.446c0-1.012,0-2.024,0-3.035c0-0.723,0.435-1.154,1.012-1.446
												c0.577-0.146,1.154-0.289,1.878-0.577c0.146,0,0.289-0.146,0.435-0.289c0.289-0.435,0.146-0.866-0.146-1.3
												c-0.289-0.435-0.435-0.866-0.723-1.3c-0.289-0.577-0.289-1.154,0.289-1.735c0.723-0.723,1.446-1.446,2.166-2.166
												c0.435-0.435,1.012-0.577,1.589-0.289c0.577,0.289,1.154,0.577,1.735,1.012c0.146,0.146,0.289,0.146,0.577,0
												c0.435-0.146,0.723-0.435,0.723-0.866c0.146-0.435,0.289-1.012,0.435-1.446c0.146-0.723,0.577-1.012,1.3-1.012
												c1.154,0,2.166,0,3.324,0c0.577,0,1.012,0.435,1.3,1.012c0.146,0.577,0.289,1.3,0.577,1.878
												c0,0.146,0.146,0.289,0.289,0.435c0.435,0.289,0.866,0.146,1.154-0.146c0.435-0.289,0.866-0.577,1.3-0.723
												c0.577-0.289,1.154-0.289,1.735,0.289c0.723,0.723,1.446,1.446,2.166,2.166C161.054,430.133,161.2,430.424,161.2,431.002
												z M151.228,427.678c-0.289,0-0.723,0-1.012,0c-0.146,0-0.289,0-0.289,0.146c-0.146,0.577-0.289,1.012-0.435,1.589
												c-0.146,0.435-0.435,0.723-1.012,1.012c-0.577,0.146-1.154,0.435-1.735,0.723c-0.435,0.289-1.012,0.289-1.446,0
												c-0.289-0.146-0.577-0.289-0.723-0.435c-0.289-0.146-0.577-0.435-0.866-0.435s-0.435,0.435-0.723,0.577
												c-0.146,0.146-0.146,0.146,0,0.289c0.289,0.435,0.577,0.866,0.723,1.446c0.289,0.435,0.289,1.012,0,1.446
												c-0.289,0.577-0.435,1.012-0.723,1.589c-0.146,0.577-0.577,1.012-1.154,1.154c-0.577,0.146-1.154,0.289-1.589,0.435
												c0,0.289,0,0.723,0,1.012c0,0.146,0,0.289,0.289,0.289c0.435,0.146,1.012,0.289,1.446,0.435
												c0.577,0.146,0.866,0.435,1.012,1.012c0.146,0.577,0.435,1.154,0.723,1.735c0.146,0.435,0.289,0.866,0,1.3
												c-0.146,0.289-0.289,0.577-0.435,0.866s-0.435,0.577-0.435,0.866s0.435,0.435,0.577,0.723
												c0.146,0.146,0.289,0.146,0.435,0c0.435-0.289,0.866-0.435,1.3-0.723c0.577-0.289,1.012-0.289,1.589,0
												c0.435,0.289,1.012,0.435,1.589,0.577c0.577,0.146,1.012,0.577,1.154,1.154c0.146,0.435,0.289,1.012,0.435,1.446
												c0,0.146,0.146,0.146,0.146,0.146c0.289,0,0.723,0,1.012,0c0.146-0.577,0.289-1.154,0.435-1.735
												c0.146-0.577,0.435-0.866,1.012-1.154c0.577-0.146,1.012-0.435,1.589-0.577c0.577-0.289,1.012-0.289,1.589,0
												c0.435,0.289,0.866,0.577,1.446,0.723c0.146,0,0.289,0,0.289,0c0.289-0.289,0.577-0.435,0.723-0.723
												c-0.289-0.577-0.577-1.012-0.866-1.589c-0.289-0.435-0.289-1.012,0-1.446c0.289-0.577,0.577-1.154,0.723-1.735
												c0.146-0.435,0.435-0.723,0.866-0.866c0.577-0.146,1.012-0.289,1.589-0.435c0.146,0,0.146-0.146,0.146-0.146
												c0-0.289,0-0.723,0-1.012c-0.577-0.146-1.154-0.289-1.735-0.577c-0.435-0.146-0.723-0.435-0.866-0.866
												c-0.289-0.577-0.435-1.3-0.723-1.878c-0.146-0.435-0.146-0.866,0-1.3c0.146-0.289,0.289-0.577,0.435-0.866
												c0.146-0.289,0.435-0.577,0.435-0.866s-0.435-0.435-0.577-0.723c-0.146-0.146-0.146-0.146-0.289,0
												c-0.435,0.289-0.866,0.435-1.3,0.723c-0.577,0.289-1.012,0.289-1.589,0c-0.435-0.289-1.012-0.435-1.446-0.577
												c-0.577-0.146-1.012-0.577-1.154-1.154C151.517,428.833,151.374,428.256,151.228,427.678z"/>
											<path d="M156.287,437.936c0,3.178-2.601,5.779-5.925,5.779c-3.035,0-5.636-2.601-5.636-5.779s2.601-5.779,5.779-5.779
												C153.829,432.157,156.43,434.758,156.287,437.936z M150.651,434.758c-1.735,0-3.178,1.446-3.178,3.035
												c0,1.735,1.446,3.178,3.178,3.178c1.735,0,3.035-1.446,3.035-3.035C153.687,436.204,152.24,434.758,150.651,434.758z"/>
										</g>
									</g>
								</g>
								<path opacity="0.06" enable-background="new    " d="M305.969,344.314h-5.779c13.581,0,24.561,10.98,24.561,24.561v110.961
									c0,13.581-10.98,24.561-24.561,24.561h5.779c13.581,0,24.561-10.98,24.561-24.561V368.875
									C330.53,355.294,319.55,344.314,305.969,344.314z"/>
							</g>
							<path opacity="0.07" enable-background="new    " d="M95.026,479.837V368.875c0-13.581,10.98-24.561,24.561-24.561h-8.091
								c-13.581,0-24.561,10.98-24.561,24.561v110.961c0,13.581,10.98,24.561,24.561,24.561h8.091
								C106.007,504.397,95.026,493.418,95.026,479.837z"/>
						</g>
						<g id="Name_Tag">
							<path d="M297.732,372.919c0.289,0.289,0.723,0.435,1.012,0.435c0.435,0,0.723-0.146,1.012-0.435
								c0.289-0.289,0.435-0.723,0.435-1.012c0-0.435-0.146-0.723-0.435-1.012c-0.289-0.289-0.723-0.435-1.012-0.435
								c-0.435,0-0.723,0.146-1.012,0.435s-0.435,0.577-0.435,1.012S297.443,372.631,297.732,372.919 M297.732,386.212h2.312
								v-10.115h-2.312V386.212z M293.111,375.809c-0.866,0-1.589,0.289-2.166,0.866s-0.866,1.3-0.866,2.166
								c0,0.723,0.146,1.154,0.577,1.589c0.289,0.289,0.723,0.723,1.446,1.012c0.289,0.146,0.435,0.289,0.723,0.289
								c0.289,0.146,0.435,0.289,0.723,0.289c0.577,0.289,0.866,0.723,0.866,1.154c0,0.723-0.435,1.012-1.154,1.012
								c-0.435,0-0.723-0.146-1.012-0.435c-0.146-0.146-0.289-0.435-0.577-0.866l-2.024,0.866c0.723,1.589,1.878,2.455,3.613,2.455
								c1.012,0,1.878-0.289,2.455-0.866c0.723-0.723,1.012-1.446,1.012-2.455c0-0.723-0.146-1.3-0.577-1.878
								c-0.435-0.435-1.3-0.866-2.455-1.446c-0.866-0.435-1.3-0.723-1.3-1.154c0-0.289,0.146-0.435,0.289-0.577
								c0.146-0.146,0.289-0.146,0.577-0.146c0.435,0,0.866,0.289,1.154,0.866l1.878-1.012
								C295.423,376.532,294.411,375.809,293.111,375.809 M281.696,379.71c0.146-0.289,0.146-0.577,0.289-0.723
								c0.146-0.289,0.289-0.435,0.577-0.577c0.146-0.146,0.435-0.289,0.723-0.435c0.289-0.146,0.577-0.146,0.866-0.146
								c1.3,0,2.024,0.577,2.312,1.878L281.696,379.71L281.696,379.71z M288.775,381.156c0-1.589-0.435-2.889-1.3-3.901
								c-0.865-1.012-2.024-1.446-3.467-1.446s-2.601,0.435-3.467,1.446c-0.866,1.012-1.3,2.312-1.3,3.901
								c0,1.589,0.435,2.889,1.3,3.901c0.866,1.012,2.166,1.446,3.613,1.446c0.577,0,1.012,0,1.446-0.146
								c0.434-0.146,0.866-0.289,1.3-0.577c0.435-0.289,0.723-0.577,1.154-0.866c0.289-0.435,0.723-0.866,1.012-1.3l-2.024-1.154
								c-0.435,0.723-0.866,1.3-1.3,1.589c-0.434,0.289-0.866,0.435-1.446,0.435c-0.723,0-1.3-0.289-1.878-0.723
								c-0.435-0.435-0.723-1.154-0.866-2.024h7.225L288.775,381.156L288.775,381.156z M272.881,386.212h2.312v-5.202
								c0-1.878,0.577-2.889,1.878-2.889c0.435,0,0.866,0.146,1.3,0.435l1.012-2.166c-0.723-0.435-1.3-0.577-1.878-0.577
								c-0.435,0-0.866,0.146-1.154,0.289c-0.289,0.146-0.723,0.435-1.154,0.866v-0.866h-2.312L272.881,386.212L272.881,386.212z
								 M268.261,383.467c-0.577,0.577-1.154,0.866-2.024,0.866c-0.866,0-1.589-0.289-2.024-0.866
								c-0.577-0.577-0.866-1.446-0.866-2.312c0-1.012,0.289-1.735,0.866-2.312s1.154-0.866,2.024-0.866
								c0.866,0,1.446,0.289,2.024,0.866c0.577,0.577,0.723,1.446,0.723,2.312C269.126,382.022,268.838,382.891,268.261,383.467
								 M263.636,385.057c0.866,1.012,2.024,1.446,3.178,1.446c1.3,0,2.455-0.435,3.324-1.446c0.866-1.012,1.3-2.312,1.3-3.755
								c0-1.589-0.435-2.889-1.3-3.901c-0.866-1.012-2.024-1.589-3.467-1.589c-1.154,0-2.166,0.435-3.178,1.446v-1.154h-2.312
								v15.605h2.312v-6.645h0.143C263.636,385.063,263.636,385.057,263.636,385.057z"/>
						</g>
					</g>
					
						<line id="Present_Line_Right" fill="none" stroke="#5EC5BF" stroke-width="3" stroke-miterlimit="10" x1="182.003" y1="344.314" x2="182.003" y2="504.397"/>
					
						<line id="Present_Line_Left" fill="none" stroke="#5EC5BF" stroke-width="3" stroke-miterlimit="10" x1="235.027" y1="344.314" x2="235.027" y2="504.397"/>
				</g>
				<circle opacity="0.44" fill="#FDFEFE" enable-background="new    " cx="113.374" cy="358.038" r="4.19"/>
				<circle opacity="0.44" fill="#FDFEFE" enable-background="new    " cx="304.522" cy="358.038" r="4.19"/>
				<circle opacity="0.44" fill="#FDFEFE" enable-background="new    " cx="310.735" cy="490.094" r="4.19"/>
				<circle opacity="0.44" fill="#FDFEFE" enable-background="new    " cx="113.374" cy="490.094" r="4.19"/>
			</g>
			<g id="_x2B_Pink_Button">
				<rect x="201.509" y="370.464" fill="#C69CC8" width="13.293" height="10.403"/>
				<rect x="201.509" y="379.133" opacity="0.63" fill="#FFFFFF" enable-background="new    " width="13.293" height="1.735"/>
			</g>
			<g id="_x2B_Green_Button">
				<rect x="201.798" y="403.84" fill="#5EC5BF" width="13.293" height="10.403"/>
				<rect x="201.798" y="412.508" opacity="0.63" fill="#FFFFFF" enable-background="new    " width="13.293" height="1.735"/>
			</g>
			<g id="_x2B_Purple_Button">
				<rect x="202.086" y="437.504" fill="#4A3259" width="13.293" height="10.403"/>
				<rect x="202.086" y="446.173" opacity="0.63" fill="#FFFFFF" enable-background="new    " width="13.293" height="1.735"/>
			</g>
		</g>
	</g>
	<g id="_x2B_Head">
		<g id="Antenna">
			<g>
				<g id="XMLID_4_">
					<g>
						<rect x="201.509" y="22.263" fill="#CDDC29" width="14.447" height="62.416"/>
					</g>
				</g>
				<path fill="#5EC5BF" d="M202.086,17.209c1.878,1.878,4.044,2.743,6.645,2.743c2.601,0,4.767-0.866,6.645-2.743
					c1.878-1.878,2.743-4.047,2.743-6.645c0-2.597-0.866-4.767-2.743-6.645s-4.047-2.747-6.645-2.747
					c-2.598,0-4.767,0.866-6.645,2.747c-1.878,1.878-2.743,4.044-2.743,6.502C199.343,13.162,200.355,15.331,202.086,17.209
					L202.086,17.209z"/>
			</g>
		</g>
		<g>
			<g>
				<g>
					<g>
						<g>
							<path fill="#C69CC8" d="M190.817,71.679L52.405,311.225c-8.38,14.447,2.024,32.51,18.783,32.51H347.87
								c16.617,0,27.162-18.06,18.783-32.51L228.24,71.679C220.003,57.229,199.197,57.229,190.817,71.679z"/>
							<g opacity="0.06">
								<g id="XMLID_3_">
									<g>
										<path d="M366.649,311.227c8.38,14.447-2.024,32.51-18.783,32.51h-11.558c16.759,0,27.162-18.06,18.783-32.51
											L216.679,71.533c-3.035-5.344-7.802-8.668-13.004-10.115c1.878-0.577,3.901-0.723,5.779-0.723
											c7.225,0,14.593,3.613,18.783,10.834L366.649,311.227z"/>
									</g>
								</g>
							</g>
						</g>
						<circle opacity="0.44" fill="#FDFEFE" enable-background="new    " cx="204.545" cy="73.122" r="4.19"/>
					</g>
					<circle opacity="0.44" fill="#FDFEFE" enable-background="new    " cx="62.52" cy="323.508" r="4.19"/>
				</g>
			</g>
			<circle opacity="0.44" fill="#FDFEFE" enable-background="new    " cx="343.676" cy="323.508" r="4.19"/>
		</g>
		<path id="_x2B_Left_Eyebrow_2_" fill="none" stroke="#5EC5BF" stroke-width="2" stroke-miterlimit="10" d="M223.905,153.597
			c11.415-9.537,28.463-8.091,38.143,3.467"/>
		<g id="_x2B_Left_Eye">
			<path id="_x2B_Right_Eyebrow_1_" fill="none" stroke="#5EC5BF" stroke-width="2" stroke-miterlimit="10" d="M153.975,156.921
				c9.826-11.269,26.874-12.569,38.143-2.747"/>
			<g id="_x2B_Left_Eye_2_">
				
					<rect id="_x2B_Left_Eyelid_1_" x="211.912" y="171.514" fill="#FFFFFF" stroke="#CDDC29" stroke-width="2" stroke-miterlimit="10" width="104.025" height="56.779"/>
				<circle id="_x2B_Left_Pupil_1_" fill="#050808" cx="263.925" cy="199.831" r="15.747"/>
			</g>
		</g>
		<g id="_x2B_Right_Eye_2_">
			
				<rect id="_x2B_Right_Eyelid_2_" x="101.674" y="171.514" fill="#FFFFFF" stroke="#CDDC29" stroke-width="2" stroke-miterlimit="10" width="104.025" height="56.779"/>
			<circle id="_x2B__Right_Pupil_2_" fill="#050808" cx="153.687" cy="199.831" r="15.747"/>
		</g>
		<g id="_x2B_Mouth">
			<g id="D_1_" display="none">
				<g id="Ah_1_" display="inline">
					<g>
						<rect x="211.624" y="318.595" fill="#FFFFFF" width="85.823" height="34.241"/>
						<rect x="211.624" y="304.147" fill="#FFFFFF" width="85.823" height="14.447"/>
					</g>
					<g>
						<polygon fill="none" stroke="#FFFFFF" stroke-miterlimit="10" points="297.443,318.595 297.443,352.836 211.624,352.836 
							211.624,318.595 211.624,304.148 297.443,304.148 						"/>
						<line fill="none" stroke="#FFFFFF" stroke-miterlimit="10" x1="211.624" y1="318.595" x2="297.443" y2="318.595"/>
					</g>
				</g>
				<rect x="211.043" y="322.784" display="inline" width="87.123" height="5.636"/>
			</g>
			<g id="Ah_3_" display="none">
				<g display="inline">
					<path fill="#130909" d="M297.732,319.174v34.241c-23.984-22.538-60.538-22.538-81.775,0v-34.241
						C215.957,319.175,297.732,319.175,297.732,319.174z"/>
					<rect x="215.956" y="304.724" fill="#FFFFFF" width="81.775" height="14.447"/>
					<path fill="#D95C5C" d="M297.732,353.417h-81.776C237.197,330.875,273.751,330.875,297.732,353.417z"/>
				</g>
				<g display="inline">
					<polygon fill="none" stroke="#FFFFFF" stroke-miterlimit="10" points="297.732,353.417 215.956,353.417 215.956,319.174 
						215.956,304.725 297.732,304.725 297.732,319.174 					"/>
					<line fill="none" stroke="#FFFFFF" stroke-miterlimit="10" x1="215.956" y1="319.174" x2="297.732" y2="319.174"/>
				</g>
			</g>
			<path id="_x2B_Mouth_Neutral_1_" fill="#FDFEFE" d="M217.545,289.843c-11.126,0-21.526-0.577-30.486-1.446
				c-28.174-2.747-48.546-8.237-48.688-8.237l1.446-5.49c0.723,0.146,80.186,21.384,143.902,0l1.735,5.344
				C263.059,287.531,238.786,289.843,217.545,289.843z"/>
		</g>
	</g>
</g>
</svg>
