<?xml version="1.0" encoding="utf-8"?>
<!-- Generator: Adobe Illustrator 17.0.0, SVG Export Plug-In . SVG Version: 6.00 Build 0)  -->
<!DOCTYPE svg PUBLIC "-//W3C//DTD SVG 1.1//EN" "http://www.w3.org/Graphics/SVG/1.1/DTD/svg11.dtd">
<svg version="1.1" id="_x2B_Presi" xmlns="http://www.w3.org/2000/svg" xmlns:xlink="http://www.w3.org/1999/xlink" x="0px" y="0px"
	 width="130px" height="169px" viewBox="0 0 130 169" enable-background="new 0 0 130 169" xml:space="preserve">
<g>
	<g id="Body">
		<g id="_x2B_Right_Leg">
			<g>
				<g>
					<rect x="46.439" y="145.999" fill="#C69CC8" width="12.798" height="19.572"/>
					
						<line opacity="0.25" fill="none" stroke="#010101" stroke-width="0.25" stroke-miterlimit="10" enable-background="new    " x1="46.439" y1="149.655" x2="59.279" y2="149.655"/>
					
						<line opacity="0.25" fill="none" stroke="#010101" stroke-width="0.25" stroke-miterlimit="10" enable-background="new    " x1="46.439" y1="154.309" x2="59.279" y2="154.309"/>
					
						<line opacity="0.25" fill="none" stroke="#010101" stroke-width="0.25" stroke-miterlimit="10" enable-background="new    " x1="46.439" y1="159.005" x2="59.279" y2="159.005"/>
				</g>
				<path fill="#5EC5BF" d="M59.279,161.706c0,0,1.496,6.15-2.701,6.15s-16.497,0-16.497,0s-4.446-0.166-4.446-1.621
					c0-2.161,10.638-3.2,10.638-3.2S55.498,164.573,59.279,161.706z"/>
				<polygon fill="#C69CC8" points="45.982,163.077 43.904,164.656 43.156,164.656 45.151,163.16 				"/>
				<polygon fill="#4A3259" points="43.53,163.409 45.192,164.656 45.982,164.656 44.112,163.326 				"/>
				<polygon fill="#4A3259" points="39.167,164.24 40.497,165.279 41.245,165.238 39.79,164.074 				"/>
				<polygon fill="#C69CC8" points="41.328,163.783 39.541,165.279 38.793,165.279 40.58,163.908 				"/>
			</g>
		</g>
		<g id="_x2B_Left_Leg">
			<g>
				<g>
					<rect x="62.686" y="145.874" fill="#C69CC8" width="12.84" height="19.572"/>
					
						<line opacity="0.25" fill="none" stroke="#010101" stroke-width="0.25" stroke-miterlimit="10" enable-background="new    " x1="62.686" y1="149.489" x2="75.526" y2="149.489"/>
					
						<line opacity="0.25" fill="none" stroke="#010101" stroke-width="0.25" stroke-miterlimit="10" enable-background="new    " x1="62.686" y1="154.185" x2="75.526" y2="154.185"/>
					
						<line opacity="0.25" fill="none" stroke="#010101" stroke-width="0.25" stroke-miterlimit="10" enable-background="new    " x1="62.686" y1="158.839" x2="75.526" y2="158.839"/>
				</g>
				<path fill="#5EC5BF" d="M62.645,161.54c0,0-1.496,6.15,2.701,6.15s16.414,0,16.414,0s4.405-0.166,4.405-1.621
					c0-2.161-10.555-3.2-10.555-3.2S66.426,164.448,62.645,161.54z"/>
				<polygon fill="#C69CC8" points="75.9,162.952 77.936,164.531 78.684,164.531 76.731,163.035 				"/>
				<polygon fill="#4A3259" points="78.31,163.243 76.648,164.531 75.9,164.531 77.729,163.16 				"/>
				<polygon fill="#4A3259" points="82.632,164.116 81.302,165.113 80.554,165.113 82.05,163.95 				"/>
				<polygon fill="#C69CC8" points="80.471,163.617 82.258,165.155 83.006,165.155 81.219,163.783 				"/>
			</g>
		</g>
		<g id="_x2B_Left_Arm">
			<g>
				<g>
					<path fill="#5EC5BF" d="M122.814,122.355c0.249-0.706-0.166-0.706-0.54-0.706c-0.249,0-0.54,0-0.79-0.042
						c-0.79-0.042-0.831-0.042-0.831,0.748c0,0.457-0.166,0.54-0.582,0.54c-1.828-0.083-3.698-0.125-5.527-0.208
						c-0.166,0-0.332,0-0.582,0.042c0.083,0.208,0.125,0.332,0.166,0.457c0.831,1.745,0.831,3.49-0.083,5.236
						c-0.249,0.457-0.208,0.54,0.332,0.54c1.704,0.083,3.407,0.125,5.111,0.166c0.873,0.042,0.873-0.083,0.79,0.873
						c-0.042,0.291,0.083,0.416,0.416,0.416c0.374,0,0.79,0,1.164,0.042c0.416,0.042,0.706,0,0.706-0.54
						c0,0,0.042-0.042,0.083-0.083c0.416,0.208,0.873,0.416,1.33,0.582c0.249,0.083,0.582,0.125,0.79,0.042
						c1.33-0.54,2.618-1.122,3.906-1.704c0.125-0.042,0.249-0.166,0.332-0.291c0.208-0.332,0.208-0.665-0.042-0.997
						c-0.291-0.332-0.623-0.374-0.997-0.208c-0.706,0.291-1.454,0.54-2.119,0.914c-0.997,0.582-1.911,0.582-2.867-0.042
						c-0.042,0-0.042-0.042-0.083-0.042c-0.249-0.083-0.332-0.249-0.332-0.499c0.042-0.873,0.083-1.745,0.125-2.618
						c0.083-1.122-0.083-0.789,0.914-1.205c0.748-0.291,1.371-0.291,2.078,0.166c0.748,0.499,1.579,0.873,2.369,1.247
						c0.457,0.249,0.956,0.042,1.163-0.374c0.208-0.416,0.042-0.873-0.416-1.122c-0.083-0.042-0.166-0.083-0.249-0.125
						c-0.997-0.54-2.036-1.039-3.033-1.621c-0.499-0.291-0.956-0.332-1.496-0.083C123.687,122.064,123.313,122.147,122.814,122.355z
						"/>
				</g>
				<g>
					<path fill="#C69CC8" d="M110.016,124.266L110.016,124.266c-1.787,3.449-6.067,4.82-9.516,3.033l-6.524-3.366
						c-3.449-1.787-4.82-6.067-3.033-9.516l0,0c1.787-3.449,6.067-4.82,9.516-3.033l6.524,3.366
						C110.473,116.537,111.802,120.776,110.016,124.266z"/>
					<path opacity="0.07" enable-background="new    " d="M90.943,114.418c-0.042,0.083-0.083,0.166-0.083,0.208
						c1.87-3.324,5.984-4.571,9.391-2.826l6.524,3.366c3.407,1.745,4.779,5.859,3.116,9.308c0.042-0.083,0.083-0.125,0.125-0.208
						c1.787-3.449,0.416-7.729-3.033-9.516l-6.524-3.366C97.009,109.598,92.729,110.928,90.943,114.418z"/>
				</g>
				<g>
					<path fill="#CDDC29" d="M116.456,127.549L116.456,127.549c-1.787,3.449-6.067,4.82-9.516,3.033l0,0
						c-3.449-1.787-4.82-6.067-3.033-9.516l0,0c1.787-3.449,6.067-4.82,9.516-3.033l0,0
						C116.872,119.82,118.243,124.1,116.456,127.549z"/>
					<path opacity="0.07" enable-background="new    " d="M103.866,121.108c-0.042,0.083-0.083,0.125-0.083,0.208
						c1.87-3.324,5.984-4.571,9.391-2.826c3.407,1.745,4.779,5.859,3.117,9.308c0.042-0.083,0.083-0.125,0.125-0.208
						c1.787-3.449,0.416-7.729-3.033-9.516C109.932,116.246,105.652,117.618,103.866,121.108z"/>
				</g>
				<circle opacity="0.44" fill="#FDFEFE" enable-background="new    " cx="106.525" cy="121.815" r="1.205"/>
			</g>
		</g>
		<g id="_x2B_Right_Arm">
			<g>
				<g>
					<path fill="#5EC5BF" d="M9.415,140.846c0.374,0.665,0.623,0.332,0.873,0.042c0.166-0.208,0.374-0.374,0.54-0.582
						c0.54-0.582,0.582-0.623-0.042-1.122c-0.332-0.291-0.291-0.457,0-0.79c1.288-1.33,2.535-2.701,3.781-4.031
						c0.125-0.125,0.208-0.249,0.374-0.457c-0.208-0.083-0.332-0.125-0.457-0.166c-1.87-0.499-3.158-1.662-3.906-3.49
						c-0.208-0.499-0.249-0.499-0.623-0.083c-1.163,1.247-2.327,2.493-3.49,3.74c-0.582,0.623-0.54,0.706-1.163,0.042
						c-0.208-0.208-0.374-0.208-0.582,0.042c-0.249,0.291-0.499,0.582-0.79,0.831c-0.332,0.291-0.457,0.54-0.042,0.873
						c0,0,0,0.042,0,0.125c-0.416,0.208-0.873,0.374-1.33,0.623c-0.208,0.125-0.499,0.332-0.582,0.582
						c-0.457,1.33-0.873,2.701-1.247,4.072c-0.042,0.125-0.042,0.291,0,0.416c0.125,0.374,0.374,0.582,0.79,0.582
						s0.706-0.249,0.831-0.623c0.249-0.706,0.582-1.454,0.706-2.202c0.208-1.163,0.831-1.828,1.911-2.161
						c0.042,0,0.042-0.042,0.083-0.042c0.208-0.125,0.374-0.083,0.582,0.083c0.623,0.623,1.247,1.205,1.87,1.787
						c0.79,0.79,0.665,0.457,0.291,1.454c-0.249,0.748-0.665,1.205-1.454,1.454c-0.873,0.249-1.662,0.623-2.493,0.956
						c-0.499,0.208-0.665,0.665-0.499,1.122c0.166,0.416,0.623,0.582,1.122,0.416c0.083-0.042,0.166-0.042,0.249-0.083
						c1.08-0.416,2.119-0.873,3.2-1.247c0.54-0.208,0.873-0.54,1.039-1.08C9.041,141.719,9.207,141.345,9.415,140.846z"/>
				</g>
				<g>
					<path fill="#C69CC8" d="M15.066,128.962L15.066,128.962c-2.909-2.618-3.117-7.064-0.499-9.973l4.945-5.444
						c2.618-2.909,7.064-3.116,9.973-0.499l0,0c2.909,2.618,3.116,7.064,0.499,9.973l-4.945,5.444
						C22.421,131.33,17.933,131.58,15.066,128.962z"/>
					<path opacity="0.07" enable-background="new    " d="M29.444,113.005c-0.042-0.042-0.125-0.083-0.208-0.166
						c2.743,2.618,2.909,6.981,0.332,9.807l-4.903,5.485c-2.576,2.826-6.898,3.117-9.807,0.665c0.042,0.042,0.125,0.125,0.166,0.166
						c2.909,2.618,7.355,2.41,9.973-0.499l4.945-5.444C32.56,120.111,32.352,115.623,29.444,113.005z"/>
				</g>
				<g>
					<path fill="#CDDC29" d="M10.204,134.322L10.204,134.322c-2.909-2.618-3.117-7.064-0.499-9.973l0,0
						c2.618-2.909,7.064-3.116,9.973-0.499l0,0c2.909,2.618,3.117,7.064,0.499,9.973l0,0
						C17.559,136.691,13.113,136.898,10.204,134.322z"/>
					<path opacity="0.07" enable-background="new    " d="M19.679,123.809c-0.042-0.042-0.125-0.083-0.166-0.166
						c2.743,2.618,2.909,6.981,0.332,9.807c-2.576,2.826-6.898,3.116-9.807,0.665c0.042,0.042,0.125,0.125,0.166,0.166
						c2.909,2.618,7.355,2.41,9.973-0.499C22.795,130.915,22.587,126.427,19.679,123.809z"/>
				</g>
				<circle opacity="0.44" fill="#FDFEFE" enable-background="new    " cx="17.933" cy="125.305" r="1.205"/>
			</g>
		</g>
		<g id="_x2B_Body_1_">
			<g>
				<g>
					<g>
						<g>
							<g>
								<g>
									<path fill="#CDDC29" d="M88.574,145.874H32.643c-3.906,0-7.064-3.158-7.064-7.064v-31.913c0-3.906,3.158-7.064,7.064-7.064
										h55.931c3.906,0,7.064,3.158,7.064,7.064v31.913C95.638,142.716,92.48,145.874,88.574,145.874z"/>
									<g id="Gears" opacity="0.53">
										<g opacity="0.33">
											<path d="M43.613,114.46c-0.042,0.083-0.042,0.208-0.125,0.291c-0.125,0.291-0.291,0.54-0.457,0.79
												c-0.042,0.083-0.042,0.166-0.042,0.249c0.042,0.249,0.208,0.332,0.457,0.416c0.249,0.042,0.457,0.125,0.706,0.208
												c0.332,0.083,0.54,0.291,0.54,0.623c0,0.54,0,1.08,0,1.662c0,0.291-0.166,0.499-0.457,0.582
												c-0.332,0.083-0.623,0.208-0.956,0.291c-0.083,0.042-0.125,0.083-0.208,0.166c-0.125,0.208-0.083,0.416,0.042,0.582
												c0.125,0.208,0.249,0.416,0.374,0.665c0.166,0.332,0.125,0.623-0.125,0.873c-0.374,0.374-0.706,0.706-1.08,1.08
												c-0.249,0.249-0.54,0.291-0.831,0.125s-0.582-0.291-0.873-0.457c-0.083-0.042-0.166-0.042-0.249,0
												c-0.249,0.042-0.332,0.208-0.374,0.457s-0.125,0.499-0.208,0.748c-0.083,0.332-0.332,0.499-0.665,0.499
												c-0.499,0-1.039,0-1.537,0c-0.332,0-0.582-0.208-0.665-0.54c-0.083-0.291-0.166-0.623-0.249-0.914
												c0-0.083-0.083-0.125-0.166-0.166c-0.208-0.125-0.374-0.125-0.582,0.042c-0.208,0.125-0.457,0.249-0.665,0.374
												c-0.291,0.166-0.582,0.125-0.831-0.125c-0.374-0.332-0.706-0.706-1.08-1.08c-0.249-0.249-0.291-0.54-0.125-0.873
												c0.166-0.291,0.291-0.582,0.457-0.831c0.042-0.083,0.042-0.125,0-0.208c-0.083-0.249-0.208-0.374-0.457-0.416
												s-0.457-0.125-0.706-0.208c-0.374-0.125-0.54-0.332-0.54-0.706c0-0.499,0-0.997,0-1.496c0-0.374,0.166-0.582,0.54-0.706
												c0.291-0.083,0.623-0.166,0.914-0.249c0.083-0.042,0.125-0.083,0.166-0.166c0.125-0.208,0.083-0.416-0.042-0.623
												s-0.249-0.416-0.374-0.665c-0.166-0.291-0.125-0.582,0.125-0.831c0.374-0.374,0.706-0.748,1.08-1.08
												c0.249-0.208,0.54-0.291,0.831-0.125s0.582,0.291,0.873,0.457c0.083,0.042,0.166,0.042,0.249,0
												c0.208-0.083,0.332-0.208,0.374-0.416c0.042-0.249,0.125-0.499,0.208-0.748c0.083-0.332,0.291-0.499,0.665-0.54
												c0.54,0,1.08,0,1.621,0c0.332,0,0.54,0.208,0.623,0.499c0.083,0.291,0.166,0.623,0.249,0.914
												c0.042,0.083,0.083,0.125,0.166,0.166c0.208,0.125,0.416,0.083,0.582-0.042c0.208-0.125,0.457-0.249,0.665-0.374
												c0.291-0.166,0.623-0.125,0.831,0.125c0.374,0.374,0.706,0.706,1.08,1.08C43.53,114.044,43.572,114.21,43.613,114.46z
												 M38.627,112.839c-0.166,0-0.332,0-0.499,0c-0.083,0-0.125,0.042-0.125,0.125c-0.083,0.249-0.166,0.54-0.208,0.789
												c-0.083,0.249-0.249,0.374-0.457,0.499c-0.291,0.125-0.582,0.208-0.831,0.332c-0.249,0.125-0.457,0.125-0.706,0
												c-0.125-0.083-0.249-0.125-0.374-0.208s-0.291-0.208-0.416-0.208s-0.208,0.208-0.332,0.291
												c-0.042,0.042-0.042,0.083-0.042,0.166c0.125,0.249,0.249,0.457,0.374,0.706s0.125,0.457,0,0.706s-0.249,0.54-0.332,0.79
												c-0.083,0.291-0.249,0.457-0.582,0.54c-0.291,0.083-0.54,0.166-0.831,0.249c0,0.166,0,0.332,0,0.499
												c0,0.083,0.042,0.125,0.125,0.166c0.249,0.083,0.499,0.125,0.748,0.208s0.416,0.249,0.499,0.499
												c0.125,0.291,0.249,0.582,0.374,0.873c0.125,0.249,0.125,0.457,0,0.665c-0.083,0.125-0.166,0.249-0.208,0.416
												c-0.083,0.125-0.208,0.291-0.208,0.416s0.208,0.208,0.291,0.332c0.042,0.083,0.125,0.083,0.166,0.042
												c0.208-0.125,0.457-0.249,0.665-0.374c0.249-0.125,0.499-0.125,0.748,0s0.499,0.249,0.748,0.332
												c0.291,0.083,0.457,0.249,0.54,0.54c0.083,0.249,0.125,0.499,0.208,0.748c0,0.042,0.083,0.083,0.125,0.083
												c0.166,0,0.332,0,0.54,0c0.083-0.291,0.166-0.582,0.249-0.831c0.083-0.291,0.249-0.457,0.54-0.54
												c0.249-0.083,0.54-0.208,0.79-0.332c0.249-0.125,0.499-0.125,0.748,0c0.208,0.125,0.457,0.249,0.665,0.374
												c0.042,0,0.125,0.042,0.125,0c0.125-0.125,0.249-0.249,0.374-0.374c-0.166-0.291-0.291-0.54-0.457-0.789
												c-0.125-0.249-0.125-0.457,0-0.706c0.125-0.291,0.249-0.582,0.374-0.873c0.083-0.208,0.249-0.374,0.457-0.457
												c0.249-0.083,0.54-0.166,0.789-0.249c0.042,0,0.083-0.083,0.083-0.083c0-0.166,0-0.374,0-0.54
												c-0.291-0.083-0.582-0.166-0.914-0.249c-0.249-0.083-0.374-0.208-0.457-0.457c-0.125-0.291-0.249-0.623-0.374-0.914
												c-0.083-0.208-0.083-0.416,0-0.623c0.083-0.125,0.166-0.291,0.249-0.416s0.208-0.291,0.208-0.416
												c-0.042-0.125-0.208-0.208-0.291-0.332c-0.042-0.083-0.125-0.042-0.166-0.042c-0.208,0.125-0.457,0.249-0.665,0.374
												c-0.249,0.166-0.499,0.166-0.789,0c-0.249-0.125-0.499-0.249-0.748-0.332c-0.291-0.083-0.457-0.291-0.54-0.582
												C38.793,113.379,38.71,113.13,38.627,112.839z"/>
											<path d="M41.162,117.908c0,1.579-1.288,2.867-2.909,2.867c-1.537,0-2.826-1.33-2.826-2.909s1.33-2.826,2.867-2.826
												C39.915,115.041,41.203,116.329,41.162,117.908z M38.336,116.371c-0.873,0-1.537,0.665-1.537,1.537
												s0.706,1.537,1.537,1.537s1.537-0.706,1.537-1.537C39.873,117.036,39.167,116.371,38.336,116.371z"/>
										</g>
										<g opacity="0.33">
											<path d="M46.938,124.765c0,0.042-0.042,0.125-0.083,0.166c-0.083,0.166-0.166,0.291-0.249,0.457
												c-0.042,0.042-0.042,0.083,0,0.166c0.042,0.125,0.125,0.208,0.249,0.249c0.125,0.042,0.291,0.083,0.416,0.125
												c0.208,0.042,0.291,0.166,0.291,0.374c0,0.332,0,0.623,0,0.956c0,0.166-0.125,0.291-0.291,0.332
												c-0.166,0.042-0.374,0.125-0.54,0.166c-0.042,0-0.083,0.042-0.125,0.083c-0.083,0.125-0.042,0.249,0.042,0.332
												c0.083,0.125,0.125,0.249,0.208,0.374c0.083,0.166,0.083,0.332-0.083,0.499c-0.208,0.208-0.416,0.416-0.623,0.623
												c-0.125,0.125-0.291,0.166-0.499,0.083c-0.166-0.083-0.332-0.166-0.499-0.291c-0.042-0.042-0.083-0.042-0.166,0
												c-0.125,0.042-0.208,0.125-0.208,0.249c-0.042,0.125-0.083,0.291-0.125,0.416c-0.042,0.166-0.208,0.291-0.374,0.291
												c-0.291,0-0.582,0-0.914,0c-0.208,0-0.332-0.125-0.374-0.291s-0.083-0.374-0.166-0.54c0-0.042-0.042-0.083-0.083-0.083
												c-0.125-0.083-0.208-0.042-0.332,0c-0.125,0.083-0.249,0.166-0.374,0.208c-0.166,0.083-0.332,0.083-0.499-0.083
												c-0.208-0.208-0.416-0.416-0.623-0.623c-0.166-0.166-0.166-0.332-0.083-0.499s0.166-0.332,0.291-0.499
												c0.042-0.042,0-0.083,0-0.125c-0.042-0.125-0.125-0.208-0.249-0.249c-0.125-0.042-0.291-0.083-0.416-0.125
												c-0.208-0.042-0.291-0.208-0.291-0.416c0-0.291,0-0.582,0-0.873c0-0.208,0.125-0.332,0.291-0.416
												c0.166-0.042,0.332-0.083,0.54-0.166c0.042,0,0.083-0.042,0.125-0.083c0.083-0.125,0.042-0.249-0.042-0.374
												c-0.083-0.125-0.125-0.249-0.208-0.374c-0.083-0.166-0.083-0.332,0.083-0.499c0.208-0.208,0.416-0.416,0.623-0.623
												c0.125-0.125,0.291-0.166,0.457-0.083c0.166,0.083,0.332,0.166,0.499,0.291c0.042,0.042,0.083,0.042,0.166,0
												c0.125-0.042,0.208-0.125,0.208-0.249c0.042-0.125,0.083-0.291,0.125-0.416c0.042-0.208,0.166-0.291,0.374-0.291
												c0.332,0,0.623,0,0.956,0c0.166,0,0.291,0.125,0.374,0.291c0.042,0.166,0.083,0.374,0.166,0.54
												c0,0.042,0.042,0.083,0.083,0.125c0.125,0.083,0.249,0.042,0.332-0.042c0.125-0.083,0.249-0.166,0.374-0.208
												c0.166-0.083,0.332-0.083,0.499,0.083c0.208,0.208,0.416,0.416,0.623,0.623
												C46.896,124.515,46.938,124.599,46.938,124.765z M44.07,123.809c-0.083,0-0.208,0-0.291,0c-0.042,0-0.083,0-0.083,0.042
												c-0.042,0.166-0.083,0.291-0.125,0.457c-0.042,0.125-0.125,0.208-0.291,0.291c-0.166,0.042-0.332,0.125-0.499,0.208
												c-0.125,0.083-0.291,0.083-0.416,0c-0.083-0.042-0.166-0.083-0.208-0.125c-0.083-0.042-0.166-0.125-0.249-0.125
												s-0.125,0.125-0.208,0.166c-0.042,0.042-0.042,0.042,0,0.083c0.083,0.125,0.166,0.249,0.208,0.416
												c0.083,0.125,0.083,0.291,0,0.416c-0.083,0.166-0.125,0.291-0.208,0.457c-0.042,0.166-0.166,0.291-0.332,0.332
												c-0.166,0.042-0.332,0.083-0.457,0.125c0,0.083,0,0.208,0,0.291c0,0.042,0,0.083,0.083,0.083
												c0.125,0.042,0.291,0.083,0.416,0.125c0.166,0.042,0.249,0.125,0.291,0.291s0.125,0.332,0.208,0.499
												c0.042,0.125,0.083,0.249,0,0.374c-0.042,0.083-0.083,0.166-0.125,0.249s-0.125,0.166-0.125,0.249
												s0.125,0.125,0.166,0.208c0.042,0.042,0.083,0.042,0.125,0c0.125-0.083,0.249-0.125,0.374-0.208
												c0.166-0.083,0.291-0.083,0.457,0c0.125,0.083,0.291,0.125,0.457,0.166c0.166,0.042,0.291,0.166,0.332,0.332
												c0.042,0.125,0.083,0.291,0.125,0.416c0,0.042,0.042,0.042,0.042,0.042c0.083,0,0.208,0,0.291,0
												c0.042-0.166,0.083-0.332,0.125-0.499c0.042-0.166,0.125-0.249,0.291-0.332c0.166-0.042,0.291-0.125,0.457-0.166
												c0.166-0.083,0.291-0.083,0.457,0c0.125,0.083,0.249,0.166,0.416,0.208c0.042,0,0.083,0,0.083,0
												c0.083-0.083,0.166-0.125,0.208-0.208c-0.083-0.166-0.166-0.291-0.249-0.457c-0.083-0.125-0.083-0.291,0-0.416
												c0.083-0.166,0.166-0.332,0.208-0.499c0.042-0.125,0.125-0.208,0.249-0.249c0.166-0.042,0.291-0.083,0.457-0.125
												c0.042,0,0.042-0.042,0.042-0.042c0-0.083,0-0.208,0-0.291c-0.166-0.042-0.332-0.083-0.499-0.166
												c-0.125-0.042-0.208-0.125-0.249-0.249c-0.083-0.166-0.125-0.374-0.208-0.54c-0.042-0.125-0.042-0.249,0-0.374
												c0.042-0.083,0.083-0.166,0.125-0.249s0.125-0.166,0.125-0.249s-0.125-0.125-0.166-0.208
												c-0.042-0.042-0.042-0.042-0.083,0c-0.125,0.083-0.249,0.125-0.374,0.208c-0.166,0.083-0.291,0.083-0.457,0
												c-0.125-0.083-0.291-0.125-0.416-0.166c-0.166-0.042-0.291-0.166-0.332-0.332
												C44.153,124.141,44.112,123.975,44.07,123.809z"/>
											<path d="M45.525,126.759c0,0.914-0.748,1.662-1.704,1.662c-0.873,0-1.621-0.748-1.621-1.662s0.748-1.662,1.662-1.662
												C44.818,125.097,45.566,125.845,45.525,126.759z M43.904,125.845c-0.499,0-0.914,0.416-0.914,0.873
												c0,0.499,0.416,0.914,0.914,0.914c0.499,0,0.873-0.416,0.873-0.873C44.777,126.261,44.361,125.845,43.904,125.845z"/>
										</g>
									</g>
								</g>
								<path opacity="0.06" enable-background="new    " d="M88.574,99.833h-1.662c3.906,0,7.064,3.158,7.064,7.064v31.913
									c0,3.906-3.158,7.064-7.064,7.064h1.662c3.906,0,7.064-3.158,7.064-7.064v-31.913
									C95.638,102.991,92.48,99.833,88.574,99.833z"/>
							</g>
							<path opacity="0.07" enable-background="new    " d="M27.906,138.81v-31.913c0-3.906,3.158-7.064,7.064-7.064h-2.327
								c-3.906,0-7.064,3.158-7.064,7.064v31.913c0,3.906,3.158,7.064,7.064,7.064h2.327
								C31.064,145.874,27.906,142.716,27.906,138.81z"/>
						</g>
						<g id="Name_Tag">
							<path d="M86.205,108.06c0.083,0.083,0.208,0.125,0.291,0.125c0.125,0,0.208-0.042,0.291-0.125
								c0.083-0.083,0.125-0.208,0.125-0.291c0-0.125-0.042-0.208-0.125-0.291c-0.083-0.083-0.208-0.125-0.291-0.125
								c-0.125,0-0.208,0.042-0.291,0.125c-0.083,0.083-0.125,0.166-0.125,0.291S86.122,107.977,86.205,108.06 M86.205,111.883
								h0.665v-2.909h-0.665V111.883z M84.876,108.891c-0.249,0-0.457,0.083-0.623,0.249s-0.249,0.374-0.249,0.623
								c0,0.208,0.042,0.332,0.166,0.457c0.083,0.083,0.208,0.208,0.416,0.291c0.083,0.042,0.125,0.083,0.208,0.083
								c0.083,0.042,0.125,0.083,0.208,0.083c0.166,0.083,0.249,0.208,0.249,0.332c0,0.208-0.125,0.291-0.332,0.291
								c-0.125,0-0.208-0.042-0.291-0.125c-0.042-0.042-0.083-0.125-0.166-0.249l-0.582,0.249c0.208,0.457,0.54,0.706,1.039,0.706
								c0.291,0,0.54-0.083,0.706-0.249c0.208-0.208,0.291-0.416,0.291-0.706c0-0.208-0.042-0.374-0.166-0.54
								c-0.125-0.125-0.374-0.249-0.706-0.416c-0.249-0.125-0.374-0.208-0.374-0.332c0-0.083,0.042-0.125,0.083-0.166
								c0.042-0.042,0.083-0.042,0.166-0.042c0.125,0,0.249,0.083,0.332,0.249l0.54-0.291
								C85.541,109.099,85.25,108.891,84.876,108.891 M81.593,110.013c0.042-0.083,0.042-0.166,0.083-0.208
								c0.042-0.083,0.083-0.125,0.166-0.166c0.042-0.042,0.125-0.083,0.208-0.125s0.166-0.042,0.249-0.042
								c0.374,0,0.582,0.166,0.665,0.54L81.593,110.013L81.593,110.013z M83.629,110.429c0-0.457-0.125-0.831-0.374-1.122
								c-0.249-0.291-0.582-0.416-0.997-0.416s-0.748,0.125-0.997,0.416c-0.249,0.291-0.374,0.665-0.374,1.122
								s0.125,0.831,0.374,1.122c0.249,0.291,0.623,0.416,1.039,0.416c0.166,0,0.291,0,0.416-0.042s0.249-0.083,0.374-0.166
								c0.125-0.083,0.208-0.166,0.332-0.249c0.083-0.125,0.208-0.249,0.291-0.374l-0.582-0.332
								c-0.125,0.208-0.249,0.374-0.374,0.457s-0.249,0.125-0.416,0.125c-0.208,0-0.374-0.083-0.54-0.208
								c-0.125-0.125-0.208-0.332-0.249-0.582h2.078L83.629,110.429L83.629,110.429z M79.058,111.883h0.665v-1.496
								c0-0.54,0.166-0.831,0.54-0.831c0.125,0,0.249,0.042,0.374,0.125l0.291-0.623c-0.208-0.125-0.374-0.166-0.54-0.166
								c-0.125,0-0.249,0.042-0.332,0.083c-0.083,0.042-0.208,0.125-0.332,0.249v-0.249h-0.665L79.058,111.883L79.058,111.883z
								 M77.729,111.094c-0.166,0.166-0.332,0.249-0.582,0.249c-0.249,0-0.457-0.083-0.582-0.249
								c-0.166-0.166-0.249-0.416-0.249-0.665c0-0.291,0.083-0.499,0.249-0.665c0.166-0.166,0.332-0.249,0.582-0.249
								c0.249,0,0.416,0.083,0.582,0.249c0.166,0.166,0.208,0.416,0.208,0.665C77.978,110.678,77.895,110.928,77.729,111.094
								 M76.399,111.551c0.249,0.291,0.582,0.416,0.914,0.416c0.374,0,0.706-0.125,0.956-0.416c0.249-0.291,0.374-0.665,0.374-1.08
								c0-0.457-0.125-0.831-0.374-1.122c-0.249-0.291-0.582-0.457-0.997-0.457c-0.332,0-0.623,0.125-0.914,0.416v-0.332h-0.665
								v4.488h0.665v-1.911h0.041V111.551z"/>
						</g>
					</g>
					
						<line id="Present_Line_Right" fill="none" stroke="#5EC5BF" stroke-width="3" stroke-miterlimit="10" x1="52.921" y1="99.833" x2="52.921" y2="145.874"/>
					
						<line id="Present_Line_Left" fill="none" stroke="#5EC5BF" stroke-width="3" stroke-miterlimit="10" x1="68.171" y1="99.833" x2="68.171" y2="145.874"/>
				</g>
				<circle opacity="0.44" fill="#FDFEFE" enable-background="new    " cx="33.183" cy="103.78" r="1.205"/>
				<circle opacity="0.44" fill="#FDFEFE" enable-background="new    " cx="88.158" cy="103.78" r="1.205"/>
				<circle opacity="0.44" fill="#FDFEFE" enable-background="new    " cx="89.945" cy="141.76" r="1.205"/>
				<circle opacity="0.44" fill="#FDFEFE" enable-background="new    " cx="33.183" cy="141.76" r="1.205"/>
			</g>
			<g id="_x2B_Pink_Button">
				<rect x="58.531" y="107.354" fill="#C69CC8" width="3.823" height="2.992"/>
				<rect x="58.531" y="109.847" opacity="0.63" fill="#FFFFFF" enable-background="new    " width="3.823" height="0.499"/>
			</g>
			<g id="_x2B_Green_Button">
				<rect x="58.614" y="116.953" fill="#5EC5BF" width="3.823" height="2.992"/>
				<rect x="58.614" y="119.446" opacity="0.63" fill="#FFFFFF" enable-background="new    " width="3.823" height="0.499"/>
			</g>
			<g id="_x2B_Purple_Button">
				<rect x="58.697" y="126.635" fill="#4A3259" width="3.823" height="2.992"/>
				<rect x="58.697" y="129.128" opacity="0.63" fill="#FFFFFF" enable-background="new    " width="3.823" height="0.499"/>
			</g>
		</g>
	</g>
	<g id="_x2B_Head">
		<g id="Antenna">
			<g>
				<g id="XMLID_4_">
					<g>
						<rect x="58.531" y="7.21" fill="#CDDC29" width="4.155" height="17.951"/>
					</g>
				</g>
				<path fill="#5EC5BF" d="M58.697,5.756c0.54,0.54,1.163,0.789,1.911,0.789c0.748,0,1.371-0.249,1.911-0.789
					s0.789-1.164,0.789-1.911s-0.249-1.371-0.789-1.911s-1.164-0.79-1.911-0.79s-1.371,0.249-1.911,0.79
					c-0.54,0.54-0.789,1.163-0.789,1.87C57.908,4.592,58.199,5.216,58.697,5.756L58.697,5.756z"/>
			</g>
		</g>
		<g>
			<g>
				<g>
					<g>
						<g>
							<path fill="#C69CC8" d="M55.456,21.422L15.648,90.317c-2.41,4.155,0.582,9.35,5.402,9.35h79.575
								c4.779,0,7.812-5.194,5.402-9.35L66.219,21.422C63.85,17.266,57.866,17.266,55.456,21.422z"/>
							<g opacity="0.06">
								<g id="XMLID_3_">
									<g>
										<path d="M106.026,90.317c2.41,4.155-0.582,9.35-5.402,9.35H97.3c4.82,0,7.812-5.194,5.402-9.35L62.894,21.38
											c-0.873-1.537-2.244-2.493-3.74-2.909c0.54-0.166,1.122-0.208,1.662-0.208c2.078,0,4.197,1.039,5.402,3.116
											L106.026,90.317z"/>
									</g>
								</g>
							</g>
						</g>
						<circle opacity="0.44" fill="#FDFEFE" enable-background="new    " cx="59.404" cy="21.837" r="1.205"/>
					</g>
					<circle opacity="0.44" fill="#FDFEFE" enable-background="new    " cx="18.557" cy="93.849" r="1.205"/>
				</g>
			</g>
			<circle opacity="0.44" fill="#FDFEFE" enable-background="new    " cx="99.419" cy="93.849" r="1.205"/>
		</g>
		<path id="_x2B_Left_Eyebrow_2_" fill="none" stroke="#5EC5BF" stroke-width="2" stroke-miterlimit="10" d="M64.972,44.982
			c3.283-2.743,8.186-2.327,10.97,0.997"/>
		<g id="_x2B_Left_Eye">
			<path id="_x2B_Right_Eyebrow_1_" fill="none" stroke="#5EC5BF" stroke-width="2" stroke-miterlimit="10" d="M44.86,45.938
				c2.826-3.241,7.729-3.615,10.97-0.79"/>
			<g id="_x2B_Left_Eye_2_">
				
					<rect id="_x2B_Left_Eyelid_1_" x="61.523" y="50.135" fill="#FFFFFF" stroke="#CDDC29" stroke-width="2" stroke-miterlimit="10" width="29.918" height="16.33"/>
				<circle id="_x2B_Left_Pupil_1_" fill="#050808" cx="76.482" cy="58.279" r="4.529"/>
			</g>
		</g>
		<g id="_x2B_Right_Eye_2_">
			
				<rect id="_x2B_Right_Eyelid_2_" x="29.818" y="50.135" fill="#FFFFFF" stroke="#CDDC29" stroke-width="2" stroke-miterlimit="10" width="29.918" height="16.33"/>
			<circle id="_x2B__Right_Pupil_2_" fill="#050808" cx="44.777" cy="58.279" r="4.529"/>
		</g>
		<g id="_x2B_Mouth">
			<g id="D_1_" display="none">
				<g id="Ah_1_" display="inline">
					<g>
						<rect x="61.44" y="92.436" fill="#FFFFFF" width="24.683" height="9.848"/>
						<rect x="61.44" y="88.281" fill="#FFFFFF" width="24.683" height="4.155"/>
					</g>
					<g>
						<polygon fill="none" stroke="#FFFFFF" stroke-miterlimit="10" points="86.122,92.436 86.122,102.284 61.44,102.284 
							61.44,92.436 61.44,88.281 86.122,88.281 						"/>
						<line fill="none" stroke="#FFFFFF" stroke-miterlimit="10" x1="61.44" y1="92.436" x2="86.122" y2="92.436"/>
					</g>
				</g>
				<rect x="61.273" y="93.641" display="inline" width="25.057" height="1.621"/>
			</g>
			<g id="Ah_3_" display="none">
				<g display="inline">
					<path fill="#130909" d="M86.205,92.603v9.848c-6.898-6.482-17.411-6.482-23.519,0v-9.848H86.205z"/>
					<rect x="62.686" y="88.447" fill="#FFFFFF" width="23.519" height="4.155"/>
					<path fill="#D95C5C" d="M86.205,102.451H62.686C68.795,95.968,79.308,95.968,86.205,102.451z"/>
				</g>
				<g display="inline">
					<polygon fill="none" stroke="#FFFFFF" stroke-miterlimit="10" points="86.205,102.451 62.686,102.451 62.686,92.603 
						62.686,88.447 86.205,88.447 86.205,92.603 					"/>
					<line fill="none" stroke="#FFFFFF" stroke-miterlimit="10" x1="62.686" y1="92.603" x2="86.205" y2="92.603"/>
				</g>
			</g>
			<path id="_x2B_Mouth_Neutral_1_" fill="#FDFEFE" d="M63.143,84.167c-3.2,0-6.191-0.166-8.768-0.416
				c-8.103-0.79-13.962-2.369-14.003-2.369l0.416-1.579c0.208,0.042,23.062,6.15,41.387,0l0.499,1.537
				C76.233,83.502,69.252,84.167,63.143,84.167z"/>
		</g>
	</g>
</g>
</svg>
