<?xml version="1.0" encoding="utf-8"?>
<!-- Generator: Adobe Illustrator 17.0.0, SVG Export Plug-In . SVG Version: 6.00 Build 0)  -->
<!DOCTYPE svg PUBLIC "-//W3C//DTD SVG 1.1//EN" "http://www.w3.org/Graphics/SVG/1.1/DTD/svg11.dtd">
<svg version="1.1" id="_x2B_Presi" xmlns="http://www.w3.org/2000/svg" xmlns:xlink="http://www.w3.org/1999/xlink" x="0px" y="0px"
	 width="196px" height="254px" viewBox="0 0 196 254" enable-background="new 0 0 196 254" xml:space="preserve">
<g>
	<g id="Body">
		<g id="_x2B_Right_Leg">
			<g>
				<g>
					<rect x="70.08" y="219.502" fill="#C69CC8" width="19.25" height="29.439"/>
					
						<line opacity="0.25" fill="none" stroke="#010101" stroke-width="0.25" stroke-miterlimit="10" enable-background="new    " x1="70.08" y1="225.002" x2="89.393" y2="225.002"/>
					
						<line opacity="0.25" fill="none" stroke="#010101" stroke-width="0.25" stroke-miterlimit="10" enable-background="new    " x1="70.08" y1="232.002" x2="89.393" y2="232.002"/>
					
						<line opacity="0.25" fill="none" stroke="#010101" stroke-width="0.25" stroke-miterlimit="10" enable-background="new    " x1="70.08" y1="239.065" x2="89.393" y2="239.065"/>
				</g>
				<path fill="#5EC5BF" d="M89.393,243.128c0,0,2.25,9.25-4.063,9.25c-6.313,0-24.814,0-24.814,0s-6.687-0.25-6.687-2.438
					c0-3.25,16.001-4.813,16.001-4.813S83.705,247.44,89.393,243.128z"/>
				<polygon fill="#C69CC8" points="69.392,245.19 66.267,247.565 65.141,247.565 68.142,245.315 				"/>
				<polygon fill="#4A3259" points="65.704,245.689 68.204,247.565 69.392,247.565 66.579,245.565 				"/>
				<polygon fill="#4A3259" points="59.142,246.939 61.142,248.502 62.267,248.441 60.079,246.69 				"/>
				<polygon fill="#C69CC8" points="62.392,246.252 59.704,248.502 58.579,248.502 61.267,246.44 				"/>
			</g>
		</g>
		<g id="_x2B_Left_Leg">
			<g>
				<g>
					<rect x="94.517" y="219.314" fill="#C69CC8" width="19.313" height="29.439"/>
					
						<line opacity="0.25" fill="none" stroke="#010101" stroke-width="0.25" stroke-miterlimit="10" enable-background="new    " x1="94.517" y1="224.752" x2="113.83" y2="224.752"/>
					
						<line opacity="0.25" fill="none" stroke="#010101" stroke-width="0.25" stroke-miterlimit="10" enable-background="new    " x1="94.517" y1="231.815" x2="113.83" y2="231.815"/>
					
						<line opacity="0.25" fill="none" stroke="#010101" stroke-width="0.25" stroke-miterlimit="10" enable-background="new    " x1="94.517" y1="238.816" x2="113.83" y2="238.816"/>
				</g>
				<path fill="#5EC5BF" d="M94.455,242.878c0,0-2.25,9.25,4.063,9.25s24.689,0,24.689,0s6.626-0.25,6.626-2.438
					c0-3.25-15.876-4.813-15.876-4.813S100.143,247.252,94.455,242.878z"/>
				<polygon fill="#C69CC8" points="114.393,245.002 117.455,247.377 118.58,247.377 115.643,245.127 				"/>
				<polygon fill="#4A3259" points="118.018,245.44 115.518,247.377 114.393,247.377 117.144,245.315 				"/>
				<polygon fill="#4A3259" points="124.518,246.753 122.518,248.253 121.393,248.253 123.643,246.503 				"/>
				<polygon fill="#C69CC8" points="121.268,246.002 123.956,248.316 125.081,248.316 122.393,246.252 				"/>
			</g>
		</g>
		<g id="_x2B_Left_Arm">
			<g>
				<g>
					<path fill="#5EC5BF" d="M184.957,183.939c0.375-1.062-0.25-1.062-0.812-1.062c-0.375,0-0.812,0-1.188-0.063
						c-1.188-0.063-1.25-0.063-1.25,1.125c0,0.687-0.25,0.812-0.875,0.812c-2.75-0.125-5.562-0.188-8.313-0.313
						c-0.25,0-0.499,0-0.875,0.063c0.125,0.313,0.188,0.499,0.25,0.687c1.25,2.625,1.25,5.249-0.125,7.876
						c-0.375,0.687-0.313,0.812,0.499,0.812c2.563,0.125,5.125,0.188,7.688,0.25c1.313,0.063,1.313-0.125,1.188,1.313
						c-0.063,0.438,0.125,0.626,0.626,0.626c0.563,0,1.188,0,1.751,0.063c0.626,0.063,1.062,0,1.062-0.812
						c0,0,0.063-0.063,0.125-0.125c0.626,0.313,1.313,0.626,2,0.875c0.375,0.125,0.875,0.188,1.188,0.063
						c2-0.812,3.938-1.688,5.875-2.563c0.188-0.063,0.375-0.25,0.499-0.438c0.313-0.499,0.313-1-0.063-1.5
						c-0.438-0.499-0.937-0.563-1.5-0.313c-1.062,0.438-2.187,0.812-3.187,1.375c-1.5,0.875-2.874,0.875-4.312-0.063
						c-0.063,0-0.063-0.063-0.125-0.063c-0.375-0.125-0.499-0.375-0.499-0.751c0.063-1.313,0.125-2.625,0.188-3.938
						c0.125-1.688-0.125-1.187,1.375-1.812c1.125-0.438,2.062-0.438,3.126,0.25c1.125,0.751,2.375,1.313,3.563,1.876
						c0.687,0.375,1.438,0.063,1.749-0.563c0.313-0.626,0.063-1.313-0.626-1.688c-0.125-0.063-0.25-0.125-0.375-0.188
						c-1.5-0.812-3.062-1.563-4.562-2.438c-0.751-0.438-1.438-0.499-2.25-0.125C186.27,183.501,185.708,183.626,184.957,183.939z"/>
				</g>
				<g>
					<path fill="#C69CC8" d="M165.707,186.813L165.707,186.813c-2.688,5.188-9.126,7.25-14.313,4.562l-9.813-5.063
						c-5.188-2.688-7.25-9.126-4.562-14.313l0,0c2.688-5.188,9.126-7.25,14.313-4.562l9.813,5.063
						C166.395,175.188,168.394,181.564,165.707,186.813z"/>
					<path opacity="0.07" enable-background="new    " d="M137.019,172.001c-0.063,0.125-0.125,0.25-0.125,0.313
						c2.813-5,9.001-6.875,14.125-4.251l9.813,5.063c5.125,2.625,7.188,8.813,4.687,14c0.063-0.125,0.125-0.188,0.188-0.313
						c2.688-5.188,0.626-11.625-4.562-14.313l-9.813-5.063C146.143,164.751,139.706,166.751,137.019,172.001z"/>
				</g>
				<g>
					<path fill="#CDDC29" d="M175.394,191.751L175.394,191.751c-2.688,5.188-9.126,7.25-14.313,4.562l0,0
						c-5.188-2.688-7.25-9.126-4.562-14.313l0,0c2.688-5.188,9.126-7.25,14.313-4.562l0,0
						C176.02,180.126,178.082,186.564,175.394,191.751z"/>
					<path opacity="0.07" enable-background="new    " d="M156.457,182.063c-0.063,0.125-0.125,0.188-0.125,0.313
						c2.813-5,9.001-6.875,14.125-4.251s7.188,8.813,4.688,14c0.063-0.125,0.125-0.188,0.188-0.313
						c2.688-5.188,0.626-11.625-4.562-14.313C165.581,174.75,159.143,176.814,156.457,182.063z"/>
				</g>
				<circle opacity="0.44" fill="#FDFEFE" enable-background="new    " cx="160.457" cy="183.126" r="1.812"/>
			</g>
		</g>
		<g id="_x2B_Right_Arm">
			<g>
				<g>
					<path fill="#5EC5BF" d="M14.391,211.752c0.563,1,0.937,0.499,1.313,0.063c0.25-0.313,0.563-0.563,0.812-0.875
						c0.812-0.875,0.875-0.937-0.063-1.688c-0.499-0.438-0.438-0.687,0-1.188c1.937-2,3.813-4.063,5.687-6.063
						c0.188-0.188,0.313-0.375,0.563-0.687c-0.313-0.125-0.499-0.188-0.687-0.25c-2.813-0.751-4.75-2.5-5.875-5.249
						c-0.313-0.751-0.375-0.751-0.937-0.125c-1.749,1.876-3.5,3.75-5.249,5.625c-0.875,0.937-0.812,1.062-1.749,0.063
						c-0.313-0.313-0.563-0.313-0.875,0.063c-0.375,0.438-0.751,0.875-1.188,1.25c-0.499,0.438-0.687,0.812-0.063,1.313
						c0,0,0,0.063,0,0.188c-0.626,0.313-1.313,0.563-2,0.937c-0.313,0.188-0.751,0.499-0.875,0.875
						c-0.687,2-1.313,4.063-1.876,6.125c-0.063,0.188-0.063,0.438,0,0.626c0.188,0.563,0.563,0.875,1.188,0.875
						c0.626,0,1.062-0.375,1.25-0.937c0.375-1.062,0.875-2.187,1.062-3.312c0.313-1.749,1.25-2.75,2.874-3.25
						c0.063,0,0.063-0.063,0.125-0.063c0.313-0.188,0.563-0.125,0.875,0.125c0.937,0.937,1.876,1.812,2.813,2.688
						c1.188,1.188,1,0.687,0.438,2.187c-0.375,1.125-1,1.812-2.187,2.187c-1.313,0.375-2.5,0.937-3.75,1.438
						c-0.751,0.313-1,1-0.751,1.688c0.25,0.626,0.937,0.875,1.688,0.626c0.125-0.063,0.25-0.063,0.375-0.125
						c1.624-0.626,3.187-1.313,4.813-1.876c0.812-0.313,1.313-0.812,1.563-1.624C13.828,213.065,14.078,212.502,14.391,211.752z"/>
				</g>
				<g>
					<path fill="#C69CC8" d="M22.891,193.877L22.891,193.877c-4.376-3.938-4.688-10.625-0.751-15.001l7.438-8.188
						c3.938-4.376,10.625-4.687,15.001-0.751l0,0c4.376,3.938,4.687,10.625,0.751,15.001l-7.438,8.188
						C33.953,197.439,27.203,197.815,22.891,193.877z"/>
					<path opacity="0.07" enable-background="new    " d="M44.517,169.875c-0.063-0.063-0.188-0.125-0.313-0.25
						c4.126,3.938,4.376,10.5,0.499,14.751l-7.375,8.25c-3.875,4.251-10.375,4.688-14.751,1c0.063,0.063,0.188,0.188,0.25,0.25
						c4.376,3.938,11.063,3.625,15.001-0.751l7.438-8.188C49.204,180.564,48.891,173.813,44.517,169.875z"/>
				</g>
				<g>
					<path fill="#CDDC29" d="M15.577,201.939L15.577,201.939c-4.376-3.938-4.688-10.625-0.751-15.001l0,0
						c3.938-4.376,10.625-4.687,15.001-0.751l0,0c4.376,3.938,4.688,10.625,0.751,15.001l0,0
						C26.64,205.502,19.953,205.814,15.577,201.939z"/>
					<path opacity="0.07" enable-background="new    " d="M29.829,186.126c-0.063-0.063-0.188-0.125-0.25-0.25
						c4.126,3.938,4.376,10.5,0.499,14.751c-3.875,4.251-10.375,4.687-14.751,1c0.063,0.063,0.188,0.188,0.25,0.25
						c4.376,3.938,11.063,3.625,15.001-0.751C34.516,196.814,34.203,190.064,29.829,186.126z"/>
				</g>
				<circle opacity="0.44" fill="#FDFEFE" enable-background="new    " cx="27.203" cy="188.375" r="1.812"/>
			</g>
		</g>
		<g id="_x2B_Body_1_">
			<g>
				<g>
					<g>
						<g>
							<g>
								<g>
									<path fill="#CDDC29" d="M133.456,219.315H49.329c-5.875,0-10.625-4.75-10.625-10.625v-48.001
										c0-5.875,4.75-10.625,10.625-10.625h84.127c5.875,0,10.625,4.75,10.625,10.625v48.001
										C144.081,214.565,139.331,219.315,133.456,219.315z"/>
									<g id="Gears" opacity="0.53">
										<g opacity="0.33">
											<path d="M65.829,172.064c-0.063,0.125-0.063,0.313-0.188,0.438c-0.188,0.438-0.438,0.812-0.687,1.188
												c-0.063,0.125-0.063,0.25-0.063,0.375c0.063,0.375,0.313,0.499,0.687,0.626c0.375,0.063,0.687,0.188,1.062,0.313
												c0.499,0.125,0.812,0.438,0.812,0.937c0,0.812,0,1.624,0,2.5c0,0.438-0.25,0.751-0.687,0.875
												c-0.499,0.125-0.937,0.313-1.438,0.438c-0.125,0.063-0.188,0.125-0.313,0.25c-0.188,0.313-0.125,0.626,0.063,0.875
												c0.188,0.313,0.375,0.626,0.563,1c0.25,0.499,0.188,0.937-0.188,1.313c-0.563,0.563-1.062,1.062-1.624,1.624
												c-0.375,0.375-0.812,0.438-1.25,0.188s-0.875-0.438-1.313-0.687c-0.125-0.063-0.25-0.063-0.375,0
												c-0.375,0.063-0.499,0.313-0.563,0.687c-0.063,0.375-0.188,0.751-0.313,1.125c-0.125,0.499-0.499,0.751-1,0.751
												c-0.751,0-1.563,0-2.312,0c-0.499,0-0.875-0.313-1-0.812c-0.125-0.438-0.25-0.937-0.375-1.375
												c0-0.125-0.125-0.188-0.25-0.25c-0.313-0.188-0.563-0.188-0.875,0.063c-0.313,0.188-0.687,0.375-1,0.563
												c-0.438,0.25-0.875,0.188-1.25-0.188c-0.563-0.499-1.062-1.062-1.624-1.624c-0.375-0.375-0.438-0.812-0.188-1.313
												c0.25-0.438,0.438-0.875,0.687-1.25c0.063-0.125,0.063-0.188,0-0.313c-0.125-0.375-0.313-0.563-0.687-0.626
												c-0.375-0.063-0.687-0.188-1.062-0.313c-0.563-0.188-0.812-0.499-0.812-1.062c0-0.751,0-1.5,0-2.25
												c0-0.563,0.25-0.875,0.812-1.062c0.438-0.125,0.937-0.25,1.375-0.375c0.125-0.063,0.188-0.125,0.25-0.25
												c0.188-0.313,0.125-0.626-0.063-0.937c-0.188-0.311-0.375-0.626-0.563-1c-0.25-0.438-0.188-0.875,0.188-1.25
												c0.563-0.563,1.062-1.125,1.624-1.624c0.375-0.313,0.812-0.438,1.25-0.188s0.875,0.438,1.313,0.687
												c0.125,0.063,0.25,0.063,0.375,0c0.313-0.125,0.499-0.313,0.563-0.626c0.063-0.375,0.188-0.751,0.313-1.125
												c0.125-0.499,0.438-0.751,1-0.812c0.812,0,1.624,0,2.438,0c0.499,0,0.812,0.313,0.937,0.751
												c0.125,0.438,0.25,0.937,0.375,1.375c0.063,0.125,0.125,0.188,0.25,0.25c0.313,0.188,0.626,0.125,0.875-0.063
												c0.313-0.188,0.687-0.375,1-0.563c0.438-0.25,0.937-0.188,1.25,0.188c0.563,0.563,1.062,1.062,1.624,1.624
												C65.704,171.438,65.767,171.688,65.829,172.064z M58.329,169.626c-0.25,0-0.499,0-0.751,0
												c-0.125,0-0.188,0.063-0.188,0.188c-0.125,0.375-0.25,0.812-0.313,1.187c-0.125,0.375-0.375,0.563-0.687,0.751
												c-0.438,0.188-0.875,0.313-1.25,0.499c-0.375,0.188-0.687,0.188-1.062,0c-0.188-0.125-0.375-0.188-0.563-0.313
												s-0.438-0.313-0.626-0.313s-0.313,0.313-0.499,0.438c-0.063,0.063-0.063,0.125-0.063,0.25
												c0.188,0.375,0.375,0.687,0.563,1.062s0.188,0.687,0,1.062s-0.375,0.812-0.499,1.188
												c-0.125,0.438-0.375,0.687-0.875,0.812c-0.438,0.125-0.812,0.25-1.25,0.375c0,0.25,0,0.499,0,0.751
												c0,0.125,0.063,0.188,0.188,0.25c0.375,0.125,0.751,0.188,1.125,0.313c0.375,0.125,0.626,0.375,0.751,0.751
												c0.188,0.438,0.375,0.875,0.563,1.313c0.188,0.375,0.188,0.687,0,1c-0.125,0.188-0.25,0.375-0.313,0.626
												c-0.125,0.188-0.313,0.438-0.313,0.626s0.313,0.313,0.438,0.499c0.063,0.125,0.188,0.125,0.25,0.063
												c0.313-0.188,0.687-0.375,1-0.563c0.375-0.188,0.751-0.188,1.125,0s0.751,0.375,1.125,0.499
												c0.438,0.125,0.687,0.375,0.812,0.812c0.125,0.375,0.188,0.751,0.313,1.125c0,0.063,0.125,0.125,0.188,0.125
												c0.25,0,0.499,0,0.812,0c0.125-0.438,0.25-0.875,0.375-1.25c0.125-0.438,0.375-0.687,0.812-0.812
												c0.375-0.125,0.812-0.313,1.188-0.499c0.375-0.188,0.751-0.188,1.125,0c0.313,0.188,0.687,0.375,1,0.563
												c0.063,0,0.188,0.063,0.188,0c0.188-0.188,0.375-0.375,0.563-0.563c-0.25-0.438-0.438-0.812-0.687-1.187
												c-0.188-0.375-0.188-0.687,0-1.062c0.188-0.438,0.375-0.875,0.563-1.313c0.125-0.313,0.375-0.563,0.687-0.687
												c0.375-0.125,0.812-0.25,1.187-0.375c0.063,0,0.125-0.125,0.125-0.125c0-0.25,0-0.563,0-0.812
												c-0.438-0.125-0.875-0.25-1.375-0.375c-0.375-0.125-0.563-0.313-0.687-0.687c-0.188-0.438-0.375-0.937-0.563-1.375
												c-0.125-0.313-0.125-0.626,0-0.937c0.125-0.188,0.25-0.438,0.375-0.626s0.313-0.438,0.313-0.626
												c-0.063-0.188-0.313-0.313-0.438-0.499c-0.063-0.125-0.188-0.063-0.25-0.063c-0.313,0.188-0.687,0.375-1,0.563
												c-0.375,0.25-0.751,0.25-1.187,0c-0.375-0.188-0.751-0.375-1.125-0.499c-0.438-0.125-0.687-0.438-0.812-0.875
												C58.579,170.438,58.454,170.063,58.329,169.626z"/>
											<path d="M62.142,177.25c0,2.375-1.937,4.312-4.376,4.312c-2.312,0-4.251-2-4.251-4.375s2-4.251,4.312-4.251
												C60.267,172.938,62.204,174.875,62.142,177.25z M57.892,174.938c-1.313,0-2.312,1-2.312,2.312s1.062,2.312,2.312,2.312
												s2.312-1.062,2.312-2.312C60.203,175.939,59.142,174.938,57.892,174.938z"/>
										</g>
										<g opacity="0.33">
											<path d="M70.83,187.564c0,0.063-0.063,0.188-0.125,0.25c-0.125,0.25-0.25,0.438-0.375,0.687
												c-0.063,0.063-0.063,0.125,0,0.25c0.063,0.188,0.188,0.313,0.375,0.375c0.188,0.063,0.438,0.125,0.626,0.188
												c0.313,0.063,0.438,0.25,0.438,0.563c0,0.499,0,0.937,0,1.438c0,0.25-0.188,0.438-0.438,0.499
												c-0.25,0.063-0.563,0.188-0.812,0.25c-0.063,0-0.125,0.063-0.188,0.125c-0.125,0.188-0.063,0.375,0.063,0.499
												c0.125,0.188,0.188,0.375,0.313,0.563c0.125,0.25,0.125,0.499-0.125,0.751c-0.313,0.313-0.626,0.626-0.937,0.937
												c-0.188,0.188-0.438,0.25-0.751,0.125c-0.25-0.125-0.499-0.25-0.751-0.438c-0.063-0.063-0.125-0.063-0.25,0
												c-0.188,0.063-0.313,0.188-0.313,0.375c-0.063,0.188-0.125,0.438-0.188,0.626c-0.063,0.25-0.313,0.438-0.563,0.438
												c-0.438,0-0.875,0-1.375,0c-0.313,0-0.499-0.188-0.563-0.438c-0.063-0.25-0.125-0.563-0.25-0.812
												c0-0.063-0.063-0.125-0.125-0.125c-0.188-0.125-0.313-0.063-0.499,0c-0.188,0.125-0.375,0.25-0.563,0.313
												c-0.25,0.125-0.499,0.125-0.751-0.125c-0.313-0.313-0.626-0.626-0.937-0.937c-0.25-0.25-0.25-0.499-0.125-0.751
												c0.125-0.251,0.25-0.499,0.438-0.751c0.063-0.063,0-0.125,0-0.188c-0.063-0.188-0.188-0.313-0.375-0.375
												c-0.188-0.063-0.438-0.125-0.626-0.188c-0.313-0.063-0.438-0.313-0.438-0.626c0-0.438,0-0.875,0-1.313
												c0-0.313,0.188-0.499,0.438-0.626c0.25-0.063,0.499-0.125,0.812-0.25c0.063,0,0.125-0.063,0.188-0.125
												c0.125-0.188,0.063-0.375-0.063-0.563c-0.125-0.188-0.188-0.375-0.313-0.563c-0.125-0.25-0.125-0.499,0.125-0.751
												c0.313-0.313,0.626-0.626,0.937-0.937c0.188-0.188,0.438-0.25,0.687-0.125c0.25,0.125,0.499,0.25,0.751,0.438
												c0.063,0.063,0.125,0.063,0.25,0c0.188-0.063,0.313-0.188,0.313-0.375c0.063-0.188,0.125-0.438,0.188-0.626
												c0.063-0.313,0.25-0.438,0.563-0.438c0.499,0,0.937,0,1.438,0c0.25,0,0.438,0.188,0.563,0.438
												c0.063,0.25,0.125,0.563,0.25,0.812c0,0.063,0.063,0.125,0.125,0.188c0.188,0.125,0.375,0.063,0.499-0.063
												c0.188-0.125,0.375-0.25,0.563-0.313c0.25-0.125,0.499-0.125,0.751,0.125c0.313,0.313,0.626,0.626,0.937,0.937
												C70.767,187.188,70.83,187.314,70.83,187.564z M66.516,186.126c-0.125,0-0.313,0-0.438,0c-0.063,0-0.125,0-0.125,0.063
												c-0.063,0.25-0.125,0.438-0.188,0.687c-0.063,0.188-0.188,0.313-0.438,0.438c-0.25,0.063-0.499,0.188-0.751,0.313
												c-0.188,0.125-0.438,0.125-0.626,0c-0.125-0.063-0.25-0.125-0.313-0.188c-0.125-0.063-0.25-0.188-0.375-0.188
												s-0.188,0.188-0.313,0.25c-0.063,0.063-0.063,0.063,0,0.125c0.125,0.188,0.25,0.375,0.313,0.626
												c0.125,0.188,0.125,0.438,0,0.626c-0.125,0.25-0.188,0.438-0.313,0.687c-0.063,0.25-0.25,0.438-0.499,0.499
												c-0.25,0.063-0.499,0.125-0.687,0.188c0,0.125,0,0.313,0,0.438c0,0.063,0,0.125,0.125,0.125
												c0.188,0.063,0.438,0.125,0.626,0.188c0.25,0.063,0.375,0.188,0.438,0.438s0.188,0.499,0.313,0.751
												c0.063,0.188,0.125,0.375,0,0.563c-0.063,0.125-0.125,0.25-0.188,0.375s-0.188,0.25-0.188,0.375s0.188,0.188,0.25,0.313
												c0.063,0.063,0.125,0.063,0.188,0c0.188-0.125,0.375-0.188,0.563-0.313c0.25-0.125,0.438-0.125,0.687,0
												c0.188,0.125,0.438,0.188,0.687,0.25c0.25,0.063,0.438,0.25,0.499,0.499c0.063,0.188,0.125,0.438,0.188,0.626
												c0,0.063,0.063,0.063,0.063,0.063c0.125,0,0.313,0,0.438,0c0.063-0.25,0.125-0.499,0.188-0.751
												c0.063-0.25,0.188-0.375,0.438-0.499c0.25-0.063,0.438-0.188,0.687-0.25c0.25-0.125,0.438-0.125,0.687,0
												c0.188,0.125,0.375,0.25,0.626,0.313c0.063,0,0.125,0,0.125,0c0.125-0.125,0.25-0.188,0.313-0.313
												c-0.125-0.25-0.25-0.438-0.375-0.687c-0.125-0.188-0.125-0.438,0-0.626c0.125-0.25,0.25-0.499,0.313-0.751
												c0.063-0.188,0.188-0.313,0.375-0.375c0.25-0.063,0.438-0.125,0.687-0.188c0.063,0,0.063-0.063,0.063-0.063
												c0-0.125,0-0.313,0-0.438c-0.25-0.063-0.499-0.125-0.751-0.25c-0.188-0.063-0.313-0.188-0.375-0.375
												c-0.125-0.25-0.188-0.563-0.313-0.812c-0.063-0.188-0.063-0.375,0-0.563c0.063-0.125,0.125-0.25,0.188-0.375
												c0.063-0.125,0.188-0.25,0.188-0.375s-0.188-0.188-0.25-0.313c-0.063-0.063-0.063-0.063-0.125,0
												c-0.188,0.125-0.375,0.188-0.563,0.313c-0.25,0.125-0.438,0.125-0.687,0c-0.188-0.125-0.438-0.188-0.626-0.25
												c-0.25-0.063-0.438-0.25-0.499-0.499C66.641,186.625,66.579,186.376,66.516,186.126z"/>
											<path d="M68.705,190.563c0,1.375-1.125,2.5-2.563,2.5c-1.313,0-2.438-1.125-2.438-2.5s1.125-2.5,2.5-2.5
												C67.641,188.063,68.766,189.188,68.705,190.563z M66.267,189.188c-0.751,0-1.375,0.626-1.375,1.313
												c0,0.751,0.626,1.375,1.375,1.375c0.751,0,1.313-0.626,1.313-1.313C67.58,189.814,66.954,189.188,66.267,189.188z"/>
										</g>
									</g>
								</g>
								<path opacity="0.06" enable-background="new    " d="M133.456,150.063h-2.5c5.875,0,10.625,4.75,10.625,10.625v48.001
									c0,5.875-4.75,10.625-10.625,10.625h2.5c5.875,0,10.625-4.75,10.625-10.625v-48.001
									C144.081,154.813,139.331,150.063,133.456,150.063z"/>
							</g>
							<path opacity="0.07" enable-background="new    " d="M42.204,208.689v-48.001c0-5.875,4.75-10.625,10.625-10.625h-3.5
								c-5.875,0-10.625,4.75-10.625,10.625v48.001c0,5.875,4.75,10.625,10.625,10.625h3.5
								C46.954,219.315,42.204,214.565,42.204,208.689z"/>
						</g>
						<g id="Name_Tag">
							<path d="M129.893,162.438c0.125,0.125,0.313,0.188,0.438,0.188c0.188,0,0.313-0.063,0.438-0.188s0.188-0.313,0.188-0.438
								c0-0.188-0.063-0.313-0.188-0.438s-0.313-0.188-0.438-0.188c-0.188,0-0.313,0.063-0.438,0.188s-0.188,0.25-0.188,0.438
								S129.768,162.313,129.893,162.438 M129.893,168.188h1v-4.376h-1V168.188z M127.894,163.687c-0.375,0-0.687,0.125-0.937,0.375
								s-0.375,0.563-0.375,0.937c0,0.313,0.063,0.499,0.25,0.687c0.125,0.125,0.313,0.313,0.626,0.438
								c0.125,0.063,0.188,0.125,0.313,0.125c0.125,0.063,0.188,0.125,0.313,0.125c0.25,0.125,0.375,0.313,0.375,0.499
								c0,0.313-0.188,0.438-0.499,0.438c-0.188,0-0.313-0.063-0.438-0.188c-0.063-0.063-0.125-0.188-0.25-0.375l-0.875,0.375
								c0.313,0.687,0.812,1.062,1.563,1.062c0.438,0,0.812-0.125,1.062-0.375c0.313-0.313,0.438-0.626,0.438-1.062
								c0-0.313-0.063-0.563-0.25-0.812c-0.188-0.188-0.563-0.375-1.062-0.626c-0.375-0.188-0.563-0.313-0.563-0.499
								c0-0.125,0.063-0.188,0.125-0.25c0.063-0.063,0.125-0.063,0.25-0.063c0.188,0,0.375,0.125,0.499,0.375l0.812-0.438
								C128.894,164,128.456,163.687,127.894,163.687 M122.956,165.375c0.063-0.125,0.063-0.25,0.125-0.313
								c0.063-0.125,0.125-0.188,0.25-0.25c0.063-0.063,0.188-0.125,0.313-0.188s0.25-0.063,0.375-0.063c0.563,0,0.875,0.25,1,0.812
								L122.956,165.375L122.956,165.375z M126.018,166.001c0-0.687-0.188-1.25-0.563-1.688s-0.875-0.626-1.5-0.626
								s-1.125,0.188-1.5,0.626c-0.375,0.438-0.563,1-0.563,1.688s0.188,1.25,0.563,1.688s0.937,0.626,1.563,0.626
								c0.25,0,0.438,0,0.626-0.063c0.188-0.063,0.375-0.125,0.563-0.25s0.313-0.25,0.499-0.375
								c0.125-0.188,0.313-0.375,0.438-0.563l-0.875-0.499c-0.188,0.313-0.375,0.563-0.563,0.687
								c-0.188,0.125-0.375,0.188-0.626,0.188c-0.313,0-0.563-0.125-0.812-0.313c-0.188-0.188-0.313-0.499-0.375-0.875h3.126
								L126.018,166.001L126.018,166.001z M119.143,168.188h1v-2.25c0-0.812,0.25-1.25,0.812-1.25c0.188,0,0.375,0.063,0.563,0.188
								l0.438-0.937c-0.313-0.188-0.563-0.25-0.812-0.25c-0.188,0-0.375,0.063-0.499,0.125c-0.125,0.063-0.313,0.188-0.499,0.375
								v-0.375h-1L119.143,168.188L119.143,168.188z M117.144,167.001c-0.25,0.25-0.499,0.375-0.875,0.375
								c-0.375,0-0.687-0.125-0.875-0.375c-0.25-0.25-0.375-0.626-0.375-1c0-0.438,0.125-0.751,0.375-1
								c0.25-0.25,0.499-0.375,0.875-0.375c0.375,0,0.626,0.125,0.875,0.375c0.25,0.25,0.313,0.626,0.313,1
								C117.518,166.375,117.393,166.751,117.144,167.001 M115.143,167.688c0.375,0.438,0.875,0.626,1.375,0.626
								c0.563,0,1.062-0.188,1.438-0.626c0.375-0.438,0.563-1,0.563-1.624c0-0.687-0.188-1.25-0.563-1.688s-0.875-0.687-1.5-0.687
								c-0.499,0-0.937,0.188-1.375,0.626v-0.499h-1v6.751h1v-2.874h0.062V167.688z"/>
						</g>
					</g>
					
						<line id="Present_Line_Right" fill="none" stroke="#5EC5BF" stroke-width="3" stroke-miterlimit="10" x1="79.829" y1="150.063" x2="79.829" y2="219.315"/>
					
						<line id="Present_Line_Left" fill="none" stroke="#5EC5BF" stroke-width="3" stroke-miterlimit="10" x1="102.767" y1="150.063" x2="102.767" y2="219.315"/>
				</g>
				<circle opacity="0.44" fill="#FDFEFE" enable-background="new    " cx="50.141" cy="156" r="1.812"/>
				<circle opacity="0.44" fill="#FDFEFE" enable-background="new    " cx="132.83" cy="156" r="1.812"/>
				<circle opacity="0.44" fill="#FDFEFE" enable-background="new    " cx="135.518" cy="213.126" r="1.812"/>
				<circle opacity="0.44" fill="#FDFEFE" enable-background="new    " cx="50.141" cy="213.126" r="1.812"/>
			</g>
			<g id="_x2B_Pink_Button">
				<rect x="88.267" y="161.376" fill="#C69CC8" width="5.75" height="4.5"/>
				<rect x="88.267" y="165.124" opacity="0.63" fill="#FFFFFF" enable-background="new    " width="5.75" height="0.751"/>
			</g>
			<g id="_x2B_Green_Button">
				<rect x="88.392" y="175.814" fill="#5EC5BF" width="5.75" height="4.5"/>
				<rect x="88.392" y="179.563" opacity="0.63" fill="#FFFFFF" enable-background="new    " width="5.75" height="0.751"/>
			</g>
			<g id="_x2B_Purple_Button">
				<rect x="88.517" y="190.376" fill="#4A3259" width="5.75" height="4.5"/>
				<rect x="88.517" y="194.126" opacity="0.63" fill="#FFFFFF" enable-background="new    " width="5.75" height="0.751"/>
			</g>
		</g>
	</g>
	<g id="_x2B_Head">
		<g id="Antenna">
			<g>
				<g id="XMLID_4_">
					<g>
						<rect x="88.267" y="10.746" fill="#CDDC29" width="6.25" height="27.001"/>
					</g>
				</g>
				<path fill="#5EC5BF" d="M88.517,8.559c0.812,0.812,1.749,1.187,2.874,1.187s2.062-0.375,2.874-1.187
					c0.812-0.812,1.187-1.751,1.187-2.874c0-1.124-0.375-2.062-1.187-2.874c-0.812-0.812-1.751-1.188-2.874-1.188
					s-2.062,0.375-2.874,1.188C87.705,3.623,87.33,4.56,87.33,5.624C87.33,6.808,87.768,7.747,88.517,8.559L88.517,8.559z"/>
			</g>
		</g>
		<g>
			<g>
				<g>
					<g>
						<g>
							<path fill="#C69CC8" d="M83.642,32.123L23.766,135.75c-3.625,6.25,0.875,14.064,8.125,14.064h119.691
								c7.188,0,11.75-7.812,8.125-14.064L99.831,32.123C96.268,25.872,87.267,25.872,83.642,32.123z"/>
							<g opacity="0.06">
								<g id="XMLID_3_">
									<g>
										<path d="M159.706,135.75c3.625,6.25-0.875,14.064-8.125,14.064h-5c7.25,0,11.75-7.812,8.125-14.064L94.83,32.06
											c-1.313-2.312-3.375-3.75-5.625-4.376c0.812-0.25,1.688-0.313,2.5-0.313c3.126,0,6.313,1.563,8.125,4.687L159.706,135.75z
											"/>
									</g>
								</g>
							</g>
						</g>
						<circle opacity="0.44" fill="#FDFEFE" enable-background="new    " cx="89.581" cy="32.746" r="1.812"/>
					</g>
					<circle opacity="0.44" fill="#FDFEFE" enable-background="new    " cx="28.141" cy="141.061" r="1.812"/>
				</g>
			</g>
			<circle opacity="0.44" fill="#FDFEFE" enable-background="new    " cx="149.768" cy="141.061" r="1.812"/>
		</g>
		<path id="_x2B_Left_Eyebrow_2_" fill="none" stroke="#5EC5BF" stroke-width="2" stroke-miterlimit="10" d="M97.956,67.56
			c4.938-4.126,12.313-3.5,16.5,1.5"/>
		<g id="_x2B_Left_Eye">
			<path id="_x2B_Right_Eyebrow_1_" fill="none" stroke="#5EC5BF" stroke-width="2" stroke-miterlimit="10" d="M67.705,68.998
				c4.251-4.875,11.625-5.437,16.5-1.188"/>
			<g id="_x2B_Left_Eye_2_">
				
					<rect id="_x2B_Left_Eyelid_1_" x="92.768" y="75.31" fill="#FFFFFF" stroke="#CDDC29" stroke-width="2" stroke-miterlimit="10" width="45" height="24.562"/>
				<circle id="_x2B_Left_Pupil_1_" fill="#050808" cx="115.268" cy="87.561" r="6.812"/>
			</g>
		</g>
		<g id="_x2B_Right_Eye_2_">
			
				<rect id="_x2B_Right_Eyelid_2_" x="45.079" y="75.31" fill="#FFFFFF" stroke="#CDDC29" stroke-width="2" stroke-miterlimit="10" width="45" height="24.562"/>
			<circle id="_x2B__Right_Pupil_2_" fill="#050808" cx="67.58" cy="87.561" r="6.812"/>
		</g>
		<g id="_x2B_Mouth">
			<g id="D_1_" display="none">
				<g id="Ah_1_" display="inline">
					<g>
						<rect x="92.643" y="138.937" fill="#FFFFFF" width="37.126" height="14.813"/>
						<rect x="92.643" y="132.686" fill="#FFFFFF" width="37.126" height="6.25"/>
					</g>
					<g>
						<polygon fill="none" stroke="#FFFFFF" stroke-miterlimit="10" points="129.768,138.937 129.768,153.75 92.643,153.75 
							92.643,138.937 92.643,132.687 129.768,132.687 						"/>
						<line fill="none" stroke="#FFFFFF" stroke-miterlimit="10" x1="92.643" y1="138.937" x2="129.768" y2="138.937"/>
					</g>
				</g>
				<rect x="92.392" y="140.75" display="inline" width="37.689" height="2.438"/>
			</g>
			<g id="Ah_3_" display="none">
				<g display="inline">
					<path fill="#130909" d="M129.893,139.188v14.813c-10.375-9.75-26.188-9.75-35.376,0v-14.813H129.893z"/>
					<rect x="94.517" y="132.936" fill="#FFFFFF" width="35.376" height="6.25"/>
					<path fill="#D95C5C" d="M129.893,154.001H94.517C103.706,144.25,119.519,144.25,129.893,154.001z"/>
				</g>
				<g display="inline">
					<polygon fill="none" stroke="#FFFFFF" stroke-miterlimit="10" points="129.893,154.001 94.517,154.001 94.517,139.188 
						94.517,132.937 129.893,132.937 129.893,139.188 					"/>
					<line fill="none" stroke="#FFFFFF" stroke-miterlimit="10" x1="94.517" y1="139.188" x2="129.893" y2="139.188"/>
				</g>
			</g>
			<path id="_x2B_Mouth_Neutral_1_" fill="#FDFEFE" d="M95.204,126.498c-4.813,0-9.312-0.25-13.188-0.626
				c-12.188-1.188-21.001-3.563-21.062-3.563l0.626-2.375c0.313,0.063,34.688,9.25,62.251,0l0.751,2.312
				C114.894,125.498,104.393,126.498,95.204,126.498z"/>
		</g>
	</g>
</g>
</svg>
