<?xml version="1.0" encoding="utf-8"?>
<!-- Generator: Adobe Illustrator 21.1.0, SVG Export Plug-In . SVG Version: 6.00 Build 0)  -->
<svg version="1.1" id="Layer_1" xmlns="http://www.w3.org/2000/svg" xmlns:xlink="http://www.w3.org/1999/xlink" x="0px" y="0px"
	 viewBox="0 0 720 720" style="enable-background:new 0 0 720 720;" xml:space="preserve">
<style type="text/css">
	.st0{fill:#4F4F4F;}
	.st1{fill:#FFFFFF;}
	.st2{fill-rule:evenodd;clip-rule:evenodd;fill:#FFFFFF;}
</style>
<g>
	<ellipse class="st0" cx="360" cy="398.5" rx="159" ry="148.4"/>
	<g>
		<path class="st1" d="M308.4,312.7c0.7,0,1.4,0,2,0c1,0.2,1.2,0.9,1.2,1.8c0,0.3,0,0.5,0,0.8c0,5.4,0,10.9,0,16.3
			c0,6,0,11.9,0,17.9c0,1.6,0,3.3,0,4.9c0,1,0.4,1.4,1.4,1.4c1.3,0,2.7-0.1,4-0.2c0.8-0.1,1.3-0.6,1.4-1.3c0.1-0.5,0.2-1,0.2-1.5
			c0-1.9,0-3.8,0-5.7c0-10.8,0-21.6,0-32.5c0-1.1,0-1.7,1.3-2c26.3,0,52.5,0,78.8,0c0.2,0,0.4,0.1,0.5,0.1c4.7,0,9.4,0,14.1,0
			c2.4,0,4.7,0.2,7,0.8c7.3,1.7,13.3,5.6,18.2,11.2c3.9,4.5,6.5,9.7,7.5,15.6c0.6,3.1,0.6,6.3,0.7,9.5c0,6.2,0,12.4,0,18.6
			c0,1-0.3,1.2-1.2,1.2c-0.2,0-0.4,0-0.6,0c-17.2,0-34.5,0-51.7,0c-1.2,0-2-0.3-2.9-1.1c-2.3-2.2-4.8-4.1-7.4-5.7
			c-9.6-5.8-19.9-7.8-30.9-5.8c-8.6,1.6-16,5.5-22.4,11.4c-0.8,0.8-1.8,1.1-2.9,1.1c-17.3,0-34.7,0-52,0c-1.1,0-1.3-0.2-1.3-1.3
			c0-1.6,0-3.1,0-4.7c0-6.6-0.3-13.1,0.2-19.7c0.3-4,1.2-7.8,2.9-11.4c2.6-5.5,6.5-9.8,11.2-13.5c0.1-0.1,0.2-0.1,0.3-0.1
			c0,0.1,0,0.1,0,0.2c0,10.4,0,20.7,0,31.1c0,1.4,0,2.9,0,4.3c0,1,0.5,1.4,1.4,1.4c1.3,0,2.6-0.1,3.9-0.2c0.9-0.1,1.3-0.6,1.4-1.5
			c0.1-0.6,0.1-1.1,0.1-1.7c0-11.7,0-23.4,0-35.1c0-0.3,0-0.5,0-0.8c-0.2-1.2-0.1-1.3,1-1.8c1-0.5,2.1-0.9,3.3-1
			c0.8-0.1,1.1,0.2,0.9,1c0,0.3-0.1,0.6-0.1,0.9c0,10.6,0,21.2,0,31.8c0,2.3,0,4.6,0,7c0,1,0.4,1.4,1.4,1.4c1.2,0,2.5,0,3.7-0.1
			c1.2-0.1,1.6-0.6,1.8-1.8c0.1-0.7,0.1-1.3,0.1-2c0-6.2,0-12.4,0-18.6c0-6.2-0.1-12.3-0.1-18.5C306.8,313.3,307,313.1,308.4,312.7z
			 M401.6,342C401.6,342,401.6,342,401.6,342c0,3.2,0,6.5,0,9.7c0.1,3.1,2.3,5.2,5.5,5.2c6.1,0,12.2,0,18.3,0c3.3,0,5.5-2.2,5.5-5.5
			c0-6.3,0-12.5,0-18.8c0-3.3-2.2-5.5-5.5-5.5c-6.2,0-12.3-0.1-18.5,0c-3.2,0-5.3,2.1-5.4,5.3C401.5,335.7,401.6,338.9,401.6,342z"
			/>
		<path class="st2" d="M323.8,375c-6.7,10-9.6,20.9-7.6,32.8c1.7,10.4,6.4,19.2,14.4,26.2c16,13.9,39,14.9,55.9,2.2
			c9.6-7.2,15.3-16.8,17.2-28.6c1.9-11.8-1-22.6-7.7-32.5c0.3,0,0.4,0,0.6,0c14.4,0,28.8,0,43.2,0c1.6,0,3.2,0,4.8,0
			c0.3,0,0.6,0,0.9,0c0.7,0.1,1.2,0.5,1.2,1.2c0.1,1,0.1,2,0.1,3c0,7.2,0,14.4,0,21.6c0,17.6,0,35.2,0,52.7c0,8.6-3.2,16.1-9,22.4
			c-5.1,5.6-11.4,9.1-18.9,10.5c-1.9,0.3-3.8,0.5-5.7,0.5c-35.3,0-70.5,0.1-105.8,0c-15.9-0.1-29.1-10.6-32.9-25.8
			c-0.8-3-1.1-6.1-1.1-9.2c0-16.4,0-32.8,0-49.2c0-8.4,0-16.8-0.1-25.2c0-0.4,0-0.7,0.1-1.1c0.1-1,0.6-1.5,1.6-1.6
			c1.1-0.1,2.2,0,3.3,0c14.9,0,29.9,0,44.8,0C323.3,375,323.5,375,323.8,375z"/>
		<path class="st2" d="M360.1,366.5c18.9,0,34.2,15.4,34.1,34.3c0,19-15.3,34.1-34.3,34.1c-18.9,0-34.2-15.3-34.2-34.2
			C325.7,381.8,341.2,366.5,360.1,366.5z M385.3,401.1c0.1-14-10.8-25.8-25.5-25.6c-14,0.2-25.2,11.8-24.8,25.7
			c0.4,14,11.7,25.2,25.9,24.8C374.2,425.6,385.5,414.3,385.3,401.1z"/>
	</g>
</g>
</svg>
