<?xml version="1.0" encoding="utf-8"?>
<!-- Generator: Adobe Illustrator 21.1.0, SVG Export Plug-In . SVG Version: 6.00 Build 0)  -->
<svg version="1.1" id="Layer_1" xmlns="http://www.w3.org/2000/svg" xmlns:xlink="http://www.w3.org/1999/xlink" x="0px" y="0px"
	 viewBox="0 0 720 720" style="enable-background:new 0 0 720 720;" xml:space="preserve">
<style type="text/css">
	.st0{fill:#4F4F4F;}
	.st1{fill:#FFFFFF;}
	.st2{fill-rule:evenodd;clip-rule:evenodd;fill:#FFFFFF;}
</style>
<g>
	<ellipse class="st0" cx="360" cy="390.5" rx="159" ry="148.4"/>
	<g>
		<path class="st1" d="M299.3,359.1h27.3V447h-27.3V359.1z M312.9,315.4c8.7,0,15.8,7.1,15.8,15.8c0,8.7-7.1,15.8-15.8,15.8
			c-8.8,0-15.8-7.1-15.8-15.8C297.1,322.5,304.2,315.4,312.9,315.4"/>
		<path class="st1" d="M343.7,359.1h26.2v12h0.4c3.6-6.9,12.6-14.2,25.8-14.2c27.7,0,32.8,18.2,32.8,41.9V447h-27.3v-42.7
			c0-10.2-0.2-23.3-14.2-23.3c-14.2,0-16.4,11.1-16.4,22.6V447h-27.3V359.1z"/>
	</g>
</g>
</svg>
