<?xml version="1.0" encoding="utf-8"?>
<!-- Generator: Adobe Illustrator 21.1.0, SVG Export Plug-In . SVG Version: 6.00 Build 0)  -->
<svg version="1.1" id="Layer_1" xmlns="http://www.w3.org/2000/svg" xmlns:xlink="http://www.w3.org/1999/xlink" x="0px" y="0px"
	 viewBox="0 0 720 720" style="enable-background:new 0 0 720 720;" xml:space="preserve">
<style type="text/css">
	.st0{fill:#4F4F4F;}
	.st1{fill:#FFFFFF;}
	.st2{fill-rule:evenodd;clip-rule:evenodd;fill:#FFFFFF;}
</style>
<ellipse class="st0" cx="345.5" cy="400.7" rx="159" ry="148.4"/>
<g>
	<path class="st1" d="M307.4,433.2c-6.2,0-12.3,0.2-18.4,0c-6.2-0.2-12.5-0.1-18.5-1.4c-14.7-3-26.7-16.3-29.1-30.9
		c-2.7-17,4.5-32.2,19.2-40.9c6-3.6,12.7-5.2,19.6-5.2c19.1,0,38.2-0.4,57.3,0.3c21.4,0.8,37.7,19.1,36.5,40.5
		c-0.3,4.9-2.1,9.7-3.3,14.6c-0.4,1.8-1.6,2.5-3.5,2.5c-3.3-0.1-6.7,0.1-10-0.1c-4.6-0.2-6.8-3.9-4.4-7.8c8-12.9-0.4-31.5-18.5-31.6
		c-17.9-0.2-35.8-0.1-53.8,0c-9.2,0.1-17,5.2-19.9,13.2c-3.1,8.6-1.4,16.3,5.1,22.7c3.6,3.6,8.1,5.5,13.3,5.5c6.7-0.1,13.3,0,20,0
		c2.1,0,3.1,0.4,3.7,2.8C303.9,422.5,305.7,427.5,307.4,433.2z"/>
	<path class="st1" d="M384.4,368.1c13.1,1.1,26.2-1.9,38.8,2.3c14.9,5,23.9,15.6,26.5,31.1c3.9,23.6-13.6,44.5-37.4,45
		c-19,0.4-38,0.3-57,0c-21.2-0.4-37.7-17.7-37.7-38.9c0-5.8,1-11.3,3.7-16.4c0.5-1,2-1.9,3.1-2c3.3-0.3,6.6-0.1,10-0.1
		c4.9,0.1,7.1,3.9,4.6,8.1c-6.8,11.8-1.1,26.4,11.9,30.3c2.3,0.7,4.9,0.9,7.3,0.9c17.5,0.1,35,0.1,52.5,0c11,0,20.4-8.6,21.1-19.3
		c0.7-11.2-7.3-20.8-18.6-21.9c-6.7-0.6-13.5-0.4-20.3-0.4c-2.5,0-3.5-0.6-4-3.1C387.8,378.7,386.1,373.7,384.4,368.1z"/>
</g>
</svg>
