<?xml version="1.0" encoding="utf-8"?>
<!-- Generator: Adobe Illustrator 21.1.0, SVG Export Plug-In . SVG Version: 6.00 Build 0)  -->
<svg version="1.1" id="Layer_1" xmlns="http://www.w3.org/2000/svg" xmlns:xlink="http://www.w3.org/1999/xlink" x="0px" y="0px"
	 viewBox="0 0 720 720" style="enable-background:new 0 0 720 720;" xml:space="preserve">
<style type="text/css">
	.st0{fill:#4F4F4F;}
	.st1{fill:#FFFFFF;}
	.st2{fill-rule:evenodd;clip-rule:evenodd;fill:#FFFFFF;}
</style>
<g>
	<ellipse class="st0" cx="360" cy="390.5" rx="159" ry="148.4"/>
	<g>
		<path d="M279.6,379.1c-0.1,8.6,2.7,16.1,7.8,22.9c5.2,6.9,12.4,10.9,20.4,13.9c-0.1,0.4-0.2,0.7-0.3,1.1c-4.7,0-9.4,0-14.3,0
			c2.6,7.9,7.1,13.7,13,18.4c6,4.7,13.2,6.7,21.5,7.9c-8.4,6.6-16.7,10.9-25.8,12.9c-8.9,2-18.1,2.7-27,4c-0.1-0.2-0.1,0,0.1,0.2
			c0.8,0.5,1.5,1.1,2.4,1.5c26.7,14.6,54.9,17.5,84.1,9.6c20.5-5.5,37.5-16.9,50.9-33.2c16-19.5,25.1-41.8,25.5-67.2
			c0.1-5.4,0.7-9.8,5.8-12.6c1.5-0.8,2.7-2.2,3.9-3.5c2.8-3.2,5.5-6.5,8.3-9.8c-0.3-0.3-0.5-0.5-0.8-0.8c-5.6,1.5-11,4.3-17.6,4.1
			c10.9-11.2,13.4-14.8,13.3-19.3c-0.9,0.4-1.7,0.9-2.5,1.2c-5.7,2.2-11.5,4.3-17.2,6.5c-2.3,0.9-3.8,0.1-5.5-1.4
			c-20.1-17.9-51.5-10-60.9,15.1c-2.5,6.8-2.6,13.9-1.5,21.6c-31.6-2.1-57.1-15.4-77.5-38.8c-3.6,3.2-5.6,12.3-5.6,17.6
			c0.1,12.8,5.2,23.3,15.4,31.3c-0.2,0.4-0.5,0.7-0.7,1.1C289.7,382,285,380.6,279.6,379.1z"/>
		<path class="st1" d="M279.6,379.1c5.4,1.5,10.2,2.9,15,4.2c0.2-0.4,0.5-0.7,0.7-1.1c-10.2-8-15.4-18.6-15.4-31.3
			c0-5.3,2-14.4,5.6-17.6c20.4,23.5,45.9,36.7,77.5,38.8c-1.1-7.8-1-14.8,1.5-21.6c9.3-25.2,40.8-33,60.9-15.1
			c1.8,1.6,3.3,2.3,5.5,1.4c5.7-2.2,11.5-4.3,17.2-6.5c0.8-0.3,1.6-0.8,2.5-1.2c0.1,4.4-2.4,8.1-13.3,19.3
			c6.6,0.2,11.9-2.6,17.6-4.1c0.3,0.3,0.5,0.5,0.8,0.8c-2.8,3.3-5.5,6.6-8.3,9.8c-1.1,1.3-2.4,2.7-3.9,3.5
			c-5.1,2.8-5.7,7.2-5.8,12.6c-0.4,25.4-9.5,47.7-25.5,67.2c-13.4,16.4-30.4,27.7-50.9,33.2c-29.2,7.9-57.4,5-84.1-9.6
			c-0.8-0.4-1.6-1-2.4-1.5c-0.2-0.1-0.3-0.4-0.1-0.2c8.9-1.2,18.1-2,27-4c9.1-2,17.4-6.4,25.8-12.9c-8.3-1.2-15.5-3.2-21.5-7.9
			c-6-4.7-10.4-10.5-13-18.4c5,0,9.7,0,14.3,0c0.1-0.4,0.2-0.7,0.3-1.1c-8-2.9-15.2-7-20.4-13.9
			C282.3,395.2,279.5,387.7,279.6,379.1z"/>
	</g>
</g>
</svg>
